<svg xmlns="http://www.w3.org/2000/svg" width="301" height="251" viewBox="0 0 301 251">
  <g id="img-brand-boost" transform="translate(-873 -3781)">
    <rect id="Rectangle_4167" data-name="Rectangle 4167" width="301" height="251" rx="12" transform="translate(873 3781)" fill="#fff"/>
    <g id="Group_12931" data-name="Group 12931" transform="translate(10.129 -7.081)">
      <rect id="Rectangle_4135" data-name="Rectangle 4135" width="10.911" height="26.32" rx="5.456" transform="translate(1025.46 3930.663)" fill="#f6f8f9"/>
      <rect id="Rectangle_4138" data-name="Rectangle 4138" width="10.911" height="18.07" rx="5.456" transform="translate(1005.202 3939.275)" fill="#f6f8f9"/>
      <rect id="Rectangle_4140" data-name="Rectangle 4140" width="15" height="10" rx="5" transform="translate(980.856 3947.346)" fill="#f6f8f9"/>
      <rect id="Rectangle_4137" data-name="Rectangle 4137" width="10.911" height="75.031" rx="5.456" transform="translate(1065.975 3883.093)" fill="#f6f8f9"/>
      <g id="Group_12822" data-name="Group 12822" transform="translate(1008.371 3850.5)">
        <rect id="Rectangle_4139" data-name="Rectangle 4139" width="56" height="56" rx="12" fill="#f4fbfc"/>
        <path id="Path_15241" data-name="Path 15241" d="M7.227-17.5a1.444,1.444,0,0,0-1.445,1.445,1.444,1.444,0,0,0,1.445,1.445h2.29L.424-5.513a1.448,1.448,0,0,0,0,2.046,1.448,1.448,0,0,0,2.046,0l9.092-9.1v2.29a1.444,1.444,0,0,0,1.445,1.445,1.444,1.444,0,0,0,1.445-1.445v-5.781A1.444,1.444,0,0,0,13.008-17.5Zm18.789,3.613a2.168,2.168,0,0,0-1.084-1.878,2.168,2.168,0,0,0-2.168,0,2.168,2.168,0,0,0-1.084,1.878,2.168,2.168,0,0,0,1.084,1.878,2.168,2.168,0,0,0,2.168,0A2.168,2.168,0,0,0,26.016-13.887ZM20.235-8.105a2.168,2.168,0,0,0-1.084-1.878,2.168,2.168,0,0,0-2.168,0A2.168,2.168,0,0,0,15.9-8.105a2.168,2.168,0,0,0,1.084,1.878,2.168,2.168,0,0,0,2.168,0A2.168,2.168,0,0,0,20.235-8.105ZM18.067-.156A2.168,2.168,0,0,0,19.944-1.24a2.168,2.168,0,0,0,0-2.168,2.168,2.168,0,0,0-1.878-1.084,2.168,2.168,0,0,0-1.878,1.084,2.168,2.168,0,0,0,0,2.168A2.168,2.168,0,0,0,18.067-.156Zm2.168,3.613a2.168,2.168,0,1,0-1.084,1.878A2.168,2.168,0,0,0,20.235,3.457Zm5.781,0a2.168,2.168,0,1,0-1.084,1.878A2.168,2.168,0,0,0,26.016,3.457ZM12.285-.156A2.168,2.168,0,0,0,14.163-1.24a2.168,2.168,0,0,0,0-2.168,2.168,2.168,0,0,0-1.878-1.084,2.168,2.168,0,0,0-1.878,1.084,2.168,2.168,0,0,0,0,2.168A2.168,2.168,0,0,0,12.285-.156Zm2.168,3.613a2.168,2.168,0,1,0-1.084,1.878A2.168,2.168,0,0,0,14.453,3.457ZM6.5,5.625A2.168,2.168,0,1,0,4.626,4.541,2.168,2.168,0,0,0,6.5,5.625ZM26.016-2.324A2.168,2.168,0,0,0,24.932-4.2a2.168,2.168,0,0,0-2.168,0A2.168,2.168,0,0,0,21.68-2.324,2.168,2.168,0,0,0,22.764-.446a2.168,2.168,0,0,0,2.168,0A2.168,2.168,0,0,0,26.016-2.324ZM23.848-5.937a2.168,2.168,0,0,0,1.878-1.084,2.168,2.168,0,0,0,0-2.168,2.168,2.168,0,0,0-1.878-1.084A2.168,2.168,0,0,0,21.97-9.189a2.168,2.168,0,0,0,0,2.168A2.168,2.168,0,0,0,23.848-5.937Z" transform="translate(14.931 33.998)" fill="#85d1db"/>
      </g>
      <g id="Group_12823" data-name="Group 12823" transform="translate(949.856 3930.663)">
        <path id="Path_14569" data-name="Path 14569" d="M8.214,0H37.786A8.214,8.214,0,0,1,46,8.214V37.786A8.214,8.214,0,0,1,37.786,46H8.214A8.214,8.214,0,0,1,0,37.786V8.214A8.214,8.214,0,0,1,8.214,0Z" transform="translate(0 0)" fill="#4b4b4d"/>
        <path id="Path_15242" data-name="Path 15242" d="M12.979-15.066A10.544,10.544,0,0,0,2.434-4.521v2.028A1.214,1.214,0,0,1,1.217-1.276,1.214,1.214,0,0,1,0-2.493V-4.521A12.978,12.978,0,0,1,12.979-17.5,12.978,12.978,0,0,1,25.959-4.521V2.785a4.463,4.463,0,0,1-4.467,4.462L15.9,7.242a2.437,2.437,0,0,1-2.109,1.217H12.168a2.434,2.434,0,0,1,0-4.867h1.622A2.437,2.437,0,0,1,15.9,4.808l5.6.005a2.027,2.027,0,0,0,2.028-2.028V-4.521A10.544,10.544,0,0,0,12.979-15.066ZM7.3-6.954h.811A1.621,1.621,0,0,1,9.735-5.332V.347A1.621,1.621,0,0,1,8.112,1.969H7.3A3.248,3.248,0,0,1,4.056-1.276V-3.709A3.248,3.248,0,0,1,7.3-6.954Zm11.357,0A3.248,3.248,0,0,1,21.9-3.709v2.434a3.248,3.248,0,0,1-3.245,3.245h-.811A1.621,1.621,0,0,1,16.224.347V-5.332a1.621,1.621,0,0,1,1.622-1.622Z" transform="translate(10.021 27.521)" fill="#fff"/>
      </g>
      <rect id="Rectangle_4136" data-name="Rectangle 4136" width="10.911" height="62.277" rx="5.456" transform="translate(1045.717 3894.806)" fill="#85c4db"/>
    </g>
  </g>
</svg>
