<svg xmlns="http://www.w3.org/2000/svg" width="301" height="251" viewBox="0 0 301 251">
  <g id="img-messaging" transform="translate(-131.748 -2172)">
    <rect id="Rectangle_4166" data-name="Rectangle 4166" width="301" height="251" rx="8" transform="translate(131.748 2172)" fill="#fff"/>
    <g id="Group_12665" data-name="Group 12665" transform="translate(227.184 2234.702)">
      <rect id="Rectangle_4128" data-name="Rectangle 4128" width="13.184" height="13.184" rx="3" transform="translate(0 40.66)" fill="#85d1db"/>
      <rect id="Rectangle_4127" data-name="Rectangle 4127" width="13.184" height="13.184" rx="3" transform="translate(0 0)" fill="#859bdb"/>
      <path id="Path_14555" data-name="Path 14555" d="M4.2,0H55.52a4.2,4.2,0,1,1,0,8.4H4.2A4.2,4.2,0,0,1,4.2,0Z" transform="translate(48.021 87.407)" fill="#f6f8f9"/>
      <path id="Path_14555-2" data-name="Path 14555" d="M4.2,0H55.52a4.2,4.2,0,1,1,0,8.4H4.2A4.2,4.2,0,0,1,4.2,0Z" transform="translate(47.971 133.198)" fill="#f6f8f9"/>
      <path id="Path_14555-3" data-name="Path 14555" d="M6.035,0H79.8c3.333,0,6.035,1.88,6.035,4.2S83.13,8.4,79.8,8.4H6.035C2.7,8.4,0,6.518,0,4.2S2.7,0,6.035,0Z" transform="translate(21.72 100.951)" fill="#f6f8f9"/>
      <path id="Path_14557" data-name="Path 14557" d="M4.2,0H45.723a4.2,4.2,0,0,1,0,8.4H4.2A4.2,4.2,0,0,1,4.2,0Z" transform="translate(21.72 3.035)" fill="#f6f8f9"/>
      <path id="Path_14571" data-name="Path 14571" d="M2.333,0h8.4a2.333,2.333,0,0,1,2.333,2.333v8.4a2.333,2.333,0,0,1-2.333,2.333h-8.4A2.333,2.333,0,0,1,0,10.731v-8.4A2.333,2.333,0,0,1,2.333,0Z" transform="translate(113.625 84.866)" fill="#85c4db"/>
      <path id="Path_14579" data-name="Path 14579" d="M4.2,0H63.452a4.2,4.2,0,0,1,0,8.4H4.2A4.2,4.2,0,0,1,4.2,0Z" transform="translate(21.72 43.437)" fill="#f6f8f9"/>
      <path id="Path_14579-2" data-name="Path 14579" d="M4.967,0H75.05c2.743,0,4.967,1.88,4.967,4.2S77.793,8.4,75.05,8.4H4.967C2.224,8.4,0,6.518,0,4.2S2.224,0,4.967,0Z" transform="translate(21.72 57.951)" fill="#f6f8f9"/>
      <g id="Group_12928" data-name="Group 12928" transform="translate(57.577 94.424)">
        <path id="Path_14569" data-name="Path 14569" d="M8.386,0H38.577a8.386,8.386,0,0,1,8.386,8.386V38.577a8.386,8.386,0,0,1-8.386,8.386H8.386A8.386,8.386,0,0,1,0,38.577V8.386A8.386,8.386,0,0,1,8.386,0Z" transform="translate(0 0)" fill="#1e1f21"/>
        <path id="Path_15230" data-name="Path 15230" d="M2.19,3A2.19,2.19,0,0,0,.876,6.941L10.8,14.386a1.464,1.464,0,0,0,1.752,0l9.927-7.445A2.19,2.19,0,0,0,21.167,3H2.19ZM0,8.109V17.6a2.922,2.922,0,0,0,2.92,2.92H20.437a2.922,2.922,0,0,0,2.92-2.92V8.109L13.43,15.554a2.915,2.915,0,0,1-3.5,0Z" transform="translate(11.803 11.723)" fill="#fff"/>
      </g>
      <path id="Path_16070" data-name="Path 16070" d="M15.078-17.187C6.759-17.187.312-11.108.312-2.9A13.967,13.967,0,0,0,4.95,7.675c.5.446.394.7.478,3.459a1.183,1.183,0,0,0,1.656,1.044c3.143-1.384,3.184-1.493,3.717-1.349C19.908,13.336,29.778,7.508,29.778-2.9c0-8.212-6.381-14.292-14.7-14.292Zm8.866,11L19.607.676a2.22,2.22,0,0,1-1.473.994,2.22,2.22,0,0,1-1.73-.4l-3.45-2.582a.891.891,0,0,0-1.069,0L7.229,2.215a.7.7,0,0,1-1.016-.931L10.55-5.582a2.219,2.219,0,0,1,1.472-.994,2.219,2.219,0,0,1,1.73.4L17.2-3.59a.891.891,0,0,0,1.069,0l4.658-3.528a.7.7,0,0,1,1.015.928Z" transform="translate(-22.147 87.986)" fill="#9bc2ff"/>
      <path id="Path_16071" data-name="Path 16071" d="M21.451,36.6C33.3,36.6,42.9,28.8,42.9,19.177S33.3,1.75,21.451,1.75,0,9.55,0,19.177a15.27,15.27,0,0,0,4,10.13,12.2,12.2,0,0,1-1.793,5.27,15.113,15.113,0,0,1-1.274,1.81c-.176.209-.31.369-.411.478-.05.05-.084.092-.109.117l-.025.025A1.327,1.327,0,0,0,.1,38.465a1.341,1.341,0,0,0,1.24.829A17.7,17.7,0,0,0,8.18,37.677a25.106,25.106,0,0,0,4.55-2.564,25.653,25.653,0,0,0,8.722,1.5ZM17,13.882a1.349,1.349,0,0,1,1.5.469l2.949,3.93,2.949-3.93a1.339,1.339,0,0,1,2.413.8V23.2a1.341,1.341,0,1,1-2.681,0V19.177l-1.609,2.145a1.341,1.341,0,0,1-2.145,0L18.77,19.177V23.2a1.341,1.341,0,1,1-2.681,0V15.156A1.344,1.344,0,0,1,17,13.882Zm14.5,3.184V17.1a.611.611,0,0,0,.184.142,7.968,7.968,0,0,0,1.533.57l.05.017a8.6,8.6,0,0,1,2.111.855,2.928,2.928,0,0,1,1.475,2.505,3.057,3.057,0,0,1-1.491,2.706,4.679,4.679,0,0,1-2.572.637,9.574,9.574,0,0,1-2.731-.62c-.117-.042-.226-.075-.335-.117a1.338,1.338,0,1,1,.846-2.539c.142.05.276.092.411.134a6.5,6.5,0,0,0,1.894.461,1.942,1.942,0,0,0,1.072-.235.56.56,0,0,0,.176-.168.462.462,0,0,0,.05-.226V21.2c0-.059,0-.117-.226-.26a6.929,6.929,0,0,0-1.508-.578l-.1-.034a9.164,9.164,0,0,1-2.036-.8,2.814,2.814,0,0,1-1.483-2.463,3.01,3.01,0,0,1,1.55-2.648,4.936,4.936,0,0,1,2.488-.62,10.346,10.346,0,0,1,2.338.369,1.34,1.34,0,0,1-.7,2.589,7.449,7.449,0,0,0-1.684-.285,2.195,2.195,0,0,0-1.081.243.646.646,0,0,0-.2.168.275.275,0,0,0-.034.159Zm-22.79,0V17.1a.611.611,0,0,0,.184.142,7.968,7.968,0,0,0,1.533.57l.05.017a8.6,8.6,0,0,1,2.111.855,2.928,2.928,0,0,1,1.475,2.505,3.057,3.057,0,0,1-1.491,2.706,4.679,4.679,0,0,1-2.572.637,9.639,9.639,0,0,1-2.782-.637q-.163-.05-.3-.1a1.338,1.338,0,0,1,.846-2.539c.117.042.235.075.344.117a7,7,0,0,0,1.986.486,1.942,1.942,0,0,0,1.072-.235.56.56,0,0,0,.176-.168.462.462,0,0,0,.05-.226v-.017c0-.059,0-.117-.226-.26a6.929,6.929,0,0,0-1.508-.578l-.1-.034a9.164,9.164,0,0,1-2.036-.8,2.812,2.812,0,0,1-1.491-2.455,3.01,3.01,0,0,1,1.55-2.648,4.936,4.936,0,0,1,2.488-.62,12.214,12.214,0,0,1,2.606.369,1.34,1.34,0,0,1-.7,2.589,9.31,9.31,0,0,0-1.952-.285,2.195,2.195,0,0,0-1.081.243.646.646,0,0,0-.2.168.275.275,0,0,0-.034.159Z" transform="translate(89.063 13.015)" fill="#fbb56c"/>
    </g>
  </g>
</svg>
