<svg xmlns="http://www.w3.org/2000/svg" xmlns:xlink="http://www.w3.org/1999/xlink" width="566" height="392" viewBox="0 0 566 392">
  <defs>
    <clipPath id="clip-path">
      <rect id="Rectangle_4206" data-name="Rectangle 4206" width="550" height="376" rx="16" transform="translate(395 798)" fill="#f6f8f9"/>
    </clipPath>
  </defs>
  <g id="slide--1" transform="translate(-240 -515)">
    <rect id="Rectangle_4207" data-name="Rectangle 4207" width="566" height="392" rx="24" transform="translate(240 515)" fill="#f6f8f9"/>
    <g id="Mask_Group_15" data-name="Mask Group 15" transform="translate(-147 -275)" clip-path="url(#clip-path)">
      <g id="Group_12660" data-name="Group 12660" transform="translate(325.359 798)">
        <rect id="Rectangle_3889" data-name="Rectangle 3889" width="560" height="389" transform="translate(70.641)" fill="#fff"/>
        <path id="Path_14639" data-name="Path 14639" d="M11.833,0H229.267C235.8,0,241.1,3,241.1,6.7v24.3c0,3.7-5.3,6.7-11.833,6.7H11.833C5.3,37.71,0,34.709,0,31.006V6.7C0,3,5.3,0,11.833,0Z" transform="translate(88.061 341.902)" fill="#f7f8f9"/>
        <path id="Path_14640" data-name="Path 14640" d="M8.875,0H45.853c4.9,0,8.875,2.535,8.875,5.663v23.6c0,3.127-3.973,5.663-8.875,5.663H8.875C3.973,34.921,0,32.385,0,29.258V5.663C0,2.535,3.973,0,8.875,0Z" transform="translate(93.977 347.776)" fill="#bcbcbc"/>
        <path id="Path_14641" data-name="Path 14641" d="M2.633,7.309H3.658V4.022L6.257.057H5.067L3.141,3.077,1.225.057H.034l2.6,3.962ZM8.514,1.988a2.688,2.688,0,0,0-1.94.788A2.645,2.645,0,0,0,5.8,4.71a2.713,2.713,0,0,0,5.425,0,2.645,2.645,0,0,0-.773-1.934,2.688,2.688,0,0,0-1.94-.788Zm0,.945a1.718,1.718,0,0,1,1.224.534A1.691,1.691,0,0,1,10.2,4.71a1.674,1.674,0,0,1-.814,1.535,1.7,1.7,0,0,1-1.748,0A1.674,1.674,0,0,1,6.827,4.71a1.691,1.691,0,0,1,.464-1.243,1.718,1.718,0,0,1,1.224-.534Zm7.692,3.6v.781h.984v-5.2h-1V4.753a1.561,1.561,0,0,1-.349,1.2,1.587,1.587,0,0,1-1.121.567,1.2,1.2,0,0,1-.914-.375,1.182,1.182,0,0,1-.318-.93v-3.1h-1V5.255A1.952,1.952,0,0,0,12.995,6.8a1.985,1.985,0,0,0,1.516.629,1.778,1.778,0,0,0,1.7-.9Zm3.748-4.417H18.97v5.2h1V4.731a1.561,1.561,0,0,1,.4-1.231,1.587,1.587,0,0,1,1.2-.515,1.173,1.173,0,0,1,.207.021V2.026a1.218,1.218,0,0,0-.321-.041,1.574,1.574,0,0,0-1.5,1.037Zm6.183,4.427a2.15,2.15,0,0,0,1.771.894A2.568,2.568,0,0,0,29.737,6.6a2.527,2.527,0,0,0,.656-1.888,2.527,2.527,0,0,0-.656-1.888,2.568,2.568,0,0,0-1.829-.834,2.151,2.151,0,0,0-1.729.845V.057h-1V7.309h.961Zm1.6-.021a1.707,1.707,0,0,1-1.2-.562,1.679,1.679,0,0,1-.428-1.246,1.624,1.624,0,0,1,.758-1.561,1.652,1.652,0,0,1,1.746,0,1.624,1.624,0,0,1,.758,1.561,1.686,1.686,0,0,1-.432,1.246,1.713,1.713,0,0,1-1.2.562Zm6.286-4.53a2.688,2.688,0,0,0-1.94.788,2.645,2.645,0,0,0-.773,1.934,2.713,2.713,0,0,0,5.425,0,2.645,2.645,0,0,0-.773-1.934,2.688,2.688,0,0,0-1.941-.788Zm0,.945a1.718,1.718,0,0,1,1.224.534,1.691,1.691,0,0,1,.464,1.243A1.674,1.674,0,0,1,34.9,6.245a1.7,1.7,0,0,1-1.748,0A1.674,1.674,0,0,1,32.34,4.71,1.691,1.691,0,0,1,32.8,3.467a1.718,1.718,0,0,1,1.223-.534Zm6.335-.945a2.688,2.688,0,0,0-1.94.788A2.645,2.645,0,0,0,37.65,4.71a2.713,2.713,0,0,0,5.425,0A2.645,2.645,0,0,0,42.3,2.777,2.688,2.688,0,0,0,40.363,1.988Zm0,.945a1.718,1.718,0,0,1,1.224.534,1.691,1.691,0,0,1,.464,1.243,1.674,1.674,0,0,1-.814,1.535,1.7,1.7,0,0,1-1.748,0,1.674,1.674,0,0,1-.814-1.535,1.691,1.691,0,0,1,.464-1.243A1.718,1.718,0,0,1,40.363,2.933Zm5.063,4.376V5.922l.87-1.007,1.553,2.393h1.16l-2.04-3.02,1.853-2.178h-1.2l-2.2,2.495V.057h-1V7.309ZM56.288,2.338a2.953,2.953,0,0,0-1.439-.349,2.683,2.683,0,0,0-1.973.775,2.639,2.639,0,0,0-.781,1.957,2.638,2.638,0,0,0,.784,1.943,2.681,2.681,0,0,0,1.96.772,2.88,2.88,0,0,0,1.47-.349V6.077a2.344,2.344,0,0,1-1.387.411A1.724,1.724,0,0,1,53.628,6a1.7,1.7,0,0,1-.509-1.277,1.7,1.7,0,0,1,.5-1.288,1.731,1.731,0,0,1,1.3-.5,2.573,2.573,0,0,1,1.367.4Zm1.377.164v1a3.036,3.036,0,0,1,1.719-.606c.766,0,1.222.39,1.222,1.037v.2l-1.377.2c-1.263.175-1.957.688-1.957,1.614A1.552,1.552,0,0,0,57.8,7.046a1.577,1.577,0,0,0,1.175.388,1.906,1.906,0,0,0,1.708-.924v.8h.932V3.95a1.913,1.913,0,0,0-.63-1.475,1.945,1.945,0,0,0-1.538-.487,3.285,3.285,0,0,0-1.779.514Zm1.47,4.088c-.518,0-.88-.277-.88-.719s.4-.729,1.129-.822L60.627,4.9v.267A1.483,1.483,0,0,1,59.135,6.59Zm5.156-3.7V2.112h-.984v5.2h1V4.668a1.561,1.561,0,0,1,.35-1.2,1.587,1.587,0,0,1,1.12-.567,1.2,1.2,0,0,1,.914.375,1.182,1.182,0,0,1,.318.93v3.1h1V4.166a1.952,1.952,0,0,0-.513-1.549,1.985,1.985,0,0,0-1.516-.629,1.778,1.778,0,0,0-1.7.9Zm9.536-.9c-1.16,0-1.915.668-1.915,1.572,0,.935.818,1.243,1.646,1.5.756.226,1.17.367,1.17.791,0,.4-.352.688-1.056.688A2.389,2.389,0,0,1,71.9,5.727V6.837a2.974,2.974,0,0,0,1.843.6c1.191,0,1.957-.616,1.957-1.592,0-1.037-.88-1.325-1.719-1.561-.7-.205-1.087-.39-1.087-.77,0-.349.311-.627.973-.627a2.377,2.377,0,0,1,1.563.616V2.471A2.725,2.725,0,0,0,73.827,1.988Zm5.363,0a2.593,2.593,0,0,0-1.9.8,2.55,2.55,0,0,0-.7,1.929,2.585,2.585,0,0,0,.759,1.952,2.629,2.629,0,0,0,1.964.763,3.136,3.136,0,0,0,1.905-.514V5.881a2.722,2.722,0,0,1-1.76.627,1.664,1.664,0,0,1-1.237-.388,1.637,1.637,0,0,1-.575-1.153H81.51a3.181,3.181,0,0,0,.052-.565,2.258,2.258,0,0,0-.644-1.73,2.3,2.3,0,0,0-1.727-.684Zm-.021.894a1.342,1.342,0,0,1,.967.348,1.321,1.321,0,0,1,.431.926H77.679A1.464,1.464,0,0,1,79.17,2.882Zm3.676,3.133a1.241,1.241,0,0,0,.336,1.038,1.263,1.263,0,0,0,1.031.379,1.24,1.24,0,0,0,.466-.082V6.457a.928.928,0,0,1-.342.062c-.393,0-.487-.288-.487-.678V.057h-1Zm3,0a1.241,1.241,0,0,0,.336,1.038,1.263,1.263,0,0,0,1.031.379,1.24,1.24,0,0,0,.466-.082V6.457a.928.928,0,0,1-.342.062c-.393,0-.487-.288-.487-.678V.057H85.847Zm7.776-4.027a2.593,2.593,0,0,0-1.9.8,2.55,2.55,0,0,0-.7,1.929,2.585,2.585,0,0,0,.759,1.952,2.629,2.629,0,0,0,1.964.763,3.136,3.136,0,0,0,1.905-.514V5.881a2.722,2.722,0,0,1-1.76.627,1.664,1.664,0,0,1-1.237-.388,1.637,1.637,0,0,1-.575-1.153h3.862a3.181,3.181,0,0,0,.052-.565,2.258,2.258,0,0,0-.644-1.73,2.3,2.3,0,0,0-1.726-.684Zm-.021.894a1.342,1.342,0,0,1,.967.348A1.321,1.321,0,0,1,95,4.156H92.112A1.464,1.464,0,0,1,93.6,2.882Zm5.954,4.427,2.145-5.2h-1.078L99.1,5.974,97.579,2.112H96.5l2.145,5.2Zm5.229-5.321a2.593,2.593,0,0,0-1.9.8,2.55,2.55,0,0,0-.7,1.929,2.585,2.585,0,0,0,.759,1.952,2.629,2.629,0,0,0,1.964.763,3.136,3.136,0,0,0,1.905-.514V5.881a2.721,2.721,0,0,1-1.76.627,1.664,1.664,0,0,1-1.237-.388,1.637,1.637,0,0,1-.575-1.153H107.1a3.181,3.181,0,0,0,.052-.565,2.258,2.258,0,0,0-.644-1.73,2.3,2.3,0,0,0-1.727-.684Zm-.021.894a1.342,1.342,0,0,1,.966.347,1.321,1.321,0,0,1,.432.925h-2.889a1.464,1.464,0,0,1,1.491-1.272Zm4.721-.77H108.5v5.2h1V4.731a1.561,1.561,0,0,1,.4-1.231,1.587,1.587,0,0,1,1.2-.515,1.173,1.173,0,0,1,.207.021V2.026a1.218,1.218,0,0,0-.321-.041,1.574,1.574,0,0,0-1.5,1.037Zm2.485,7.242a1.837,1.837,0,0,0,.756.134c.961,0,1.367-.544,1.677-1.325l2.43-6.05h-1.087l-1.479,3.934-1.522-3.934h-1.129l2.174,5.126-.217.575c-.217.565-.487.822-.942.822a1.182,1.182,0,0,1-.666-.175Zm9.64-2.815v.77h.961V.057h-1V2.834a2.151,2.151,0,0,0-1.729-.842,2.568,2.568,0,0,0-1.829.834,2.527,2.527,0,0,0-.656,1.888A2.527,2.527,0,0,0,118.01,6.6a2.568,2.568,0,0,0,1.829.834,2.15,2.15,0,0,0,1.772-.9Zm-1.6-.021a1.713,1.713,0,0,1-1.2-.561,1.686,1.686,0,0,1-.433-1.247,1.624,1.624,0,0,1,.758-1.561,1.652,1.652,0,0,1,1.746,0,1.624,1.624,0,0,1,.758,1.561,1.679,1.679,0,0,1-.427,1.245A1.707,1.707,0,0,1,120.006,6.518ZM124.324,2.5v1a3.036,3.036,0,0,1,1.719-.606c.766,0,1.222.39,1.222,1.037v.2l-1.377.2c-1.263.175-1.957.688-1.957,1.614a1.552,1.552,0,0,0,.526,1.112,1.577,1.577,0,0,0,1.175.388,1.906,1.906,0,0,0,1.708-.924v.8h.932V3.95a1.913,1.913,0,0,0-.629-1.473,1.945,1.945,0,0,0-1.535-.489,3.285,3.285,0,0,0-1.784.514Zm1.47,4.088c-.518,0-.88-.277-.88-.719s.4-.729,1.129-.822l1.242-.154v.267A1.483,1.483,0,0,1,125.794,6.59Zm3.645,2.763a1.838,1.838,0,0,0,.756.134c.961,0,1.367-.544,1.677-1.325l2.433-6.05h-1.087l-1.479,3.934-1.522-3.934h-1.129l2.174,5.126-.217.575c-.217.565-.487.822-.942.822a1.182,1.182,0,0,1-.666-.175ZM2.136,16.344a.821.821,0,0,1,.27-.645.835.835,0,0,1,.672-.208,1.352,1.352,0,0,1,.569.123v-.863a1.5,1.5,0,0,0-.725-.147,1.669,1.669,0,0,0-1.281.454,1.641,1.641,0,0,0-.51,1.251v.473H.407v.835h.725v4.366h1V17.618H3.389v-.832H2.136Zm4.5.318a2.722,2.722,0,1,0,2.744,2.722,2.733,2.733,0,0,0-2.744-2.722Zm0,.945A1.8,1.8,0,0,1,8.372,18.63,1.769,1.769,0,0,1,8.053,20.6a1.8,1.8,0,0,1-1.968.435,1.78,1.78,0,0,1-1.133-1.654,1.691,1.691,0,0,1,.464-1.243,1.718,1.718,0,0,1,1.223-.534Zm5.042-.822H10.7v5.2h1V19.405a1.561,1.561,0,0,1,.4-1.23,1.587,1.587,0,0,1,1.193-.516,1.173,1.173,0,0,1,.207.021V16.7a1.218,1.218,0,0,0-.321-.041,1.574,1.574,0,0,0-1.5,1.037Zm5.156,3.9a1.241,1.241,0,0,0,.336,1.038,1.263,1.263,0,0,0,1.031.379,1.24,1.24,0,0,0,.466-.082v-.894a.928.928,0,0,1-.342.062c-.393,0-.487-.288-.487-.678V14.731h-1Zm3.572-6.081a.627.627,0,1,0,.632.627.631.631,0,0,0-.632-.627ZM19.9,21.984h1v-5.2h-1Zm4.048-5.639a.821.821,0,0,1,.27-.645.835.835,0,0,1,.672-.208,1.352,1.352,0,0,1,.569.123v-.863a1.5,1.5,0,0,0-.725-.147,1.669,1.669,0,0,0-1.281.454,1.641,1.641,0,0,0-.51,1.251v.473h-.725v.835h.725v4.366h1V17.618H25.2v-.832h-1.25Zm4.39.318a2.593,2.593,0,0,0-1.9.8,2.55,2.55,0,0,0-.7,1.929,2.585,2.585,0,0,0,.759,1.952,2.629,2.629,0,0,0,1.964.763,3.136,3.136,0,0,0,1.905-.514v-1.04a2.722,2.722,0,0,1-1.76.627,1.664,1.664,0,0,1-1.237-.388,1.637,1.637,0,0,1-.575-1.153h3.862a3.181,3.181,0,0,0,.052-.565,2.258,2.258,0,0,0-.644-1.73,2.3,2.3,0,0,0-1.727-.684Zm-.021.894a1.342,1.342,0,0,1,.967.348,1.321,1.321,0,0,1,.431.926h-2.89a1.464,1.464,0,0,1,1.492-1.274Zm3.417,3.914a.632.632,0,1,0,.632-.627A.629.629,0,0,0,31.738,21.47Z" transform="translate(160.393 353.704)" fill="#1e1f21"/>
        <path id="Path_9185" data-name="Path 9185" d="M143.719,42.292h-19.2V19.021h19.2Zm-17.784-1.4h16.371V20.42H125.935Z" transform="translate(-12.872 346.577)" fill="#fff"/>
        <path id="Path_9186" data-name="Path 9186" d="M139.8,45.542a6.224,6.224,0,0,1-4.189-1.641l.646-.689a5.23,5.23,0,0,0,7.132-.048l.646.665a6.2,6.2,0,0,1-4.021,1.688Z" transform="translate(-18.482 334.07)" fill="#fff"/>
        <path id="Path_9187" data-name="Path 9187" d="M143.634,13.47h-1.005A5.048,5.048,0,0,0,141.671,12a4.268,4.268,0,0,0-5.959-.546,7.04,7.04,0,0,0-.6.594,5.355,5.355,0,0,0-.888,1.4h-.981a6.576,6.576,0,0,1,1.173-2.018,5.222,5.222,0,0,1,7.277-.734,5.654,5.654,0,0,1,.67.641,6.115,6.115,0,0,1,1.268,2.135Z" transform="translate(-17.359 351.52)" fill="#fff"/>
        <path id="Path_14643" data-name="Path 14643" d="M11.833,0H229.267C235.8,0,241.1,3.247,241.1,7.252v26.29c0,4.005-5.3,7.252-11.833,7.252H11.833C5.3,40.795,0,37.548,0,33.542V7.252C0,3.247,5.3,0,11.833,0Z" transform="translate(352.324 341.902)" fill="#f7f8f9"/>
        <path id="Path_14645" data-name="Path 14645" d="M1.886,4.661H3.449a2.311,2.311,0,0,0,2.309-2.3A2.3,2.3,0,0,0,3.439.1H.861V7.352H1.886Zm0-.88V1.025h1.4a1.386,1.386,0,0,1,.99.376,1.364,1.364,0,0,1,.429.962A1.417,1.417,0,0,1,3.284,3.778ZM6.959.1V7.352h1V4.61a1.476,1.476,0,0,1,.36-1.158,1.5,1.5,0,0,1,1.111-.506,1.207,1.207,0,0,1,.912.377,1.187,1.187,0,0,1,.32.928v3.1h1V4.209a1.971,1.971,0,0,0-.521-1.542,2,2,0,0,0-1.509-.636,1.885,1.885,0,0,0-1.677.845V.1Zm8.677,1.931a2.688,2.688,0,0,0-1.94.788,2.645,2.645,0,0,0-.773,1.934,2.713,2.713,0,0,0,5.425,0,2.645,2.645,0,0,0-.773-1.934,2.688,2.688,0,0,0-1.94-.788Zm0,.945a1.718,1.718,0,0,1,1.224.534,1.691,1.691,0,0,1,.464,1.243,1.674,1.674,0,0,1-.814,1.535,1.7,1.7,0,0,1-1.748,0,1.674,1.674,0,0,1-.814-1.535,1.691,1.691,0,0,1,.464-1.243A1.718,1.718,0,0,1,15.636,2.976ZM22.3,6.387a1.287,1.287,0,0,1-.621.164.74.74,0,0,1-.849-.853V2.987h1.347V2.155H20.835V.624l-.973.308V2.155h-.819v.832h.787V5.822a1.493,1.493,0,0,0,.424,1.21,1.519,1.519,0,0,0,1.212.443A1.7,1.7,0,0,0,22.3,7.3Zm3.427-4.355a2.688,2.688,0,0,0-1.94.788,2.645,2.645,0,0,0-.773,1.934,2.713,2.713,0,0,0,5.425,0,2.645,2.645,0,0,0-.773-1.934,2.688,2.688,0,0,0-1.94-.788Zm0,.945a1.718,1.718,0,0,1,1.224.534,1.691,1.691,0,0,1,.464,1.243,1.674,1.674,0,0,1-.814,1.535,1.7,1.7,0,0,1-1.748,0,1.674,1.674,0,0,1-.814-1.535,1.691,1.691,0,0,1,.464-1.243,1.718,1.718,0,0,1,1.224-.534Zm5.726-.945a2.006,2.006,0,0,0-1.445.518,1.975,1.975,0,0,0-.647,1.383,1.849,1.849,0,0,0,.859,1.541.994.994,0,0,0-.466.781.827.827,0,0,0,.342.7,1.348,1.348,0,0,0-.88,1.13c0,.914.911,1.448,2.361,1.448,1.584,0,2.609-.7,2.609-1.592a1.525,1.525,0,0,0-.549-1.1,1.551,1.551,0,0,0-1.19-.345H31.126a.389.389,0,0,1-.285-.1.383.383,0,0,1-.129-.27.433.433,0,0,1,.207-.349,2.338,2.338,0,0,0,.538.062A2.006,2.006,0,0,0,32.9,5.317a1.975,1.975,0,0,0,.647-1.383,1.738,1.738,0,0,0-.269-.945h.859V2.155H32.216a2.286,2.286,0,0,0-.759-.123Zm0,.873a1.075,1.075,0,0,1,1.118,1.027,1.122,1.122,0,0,1-2.236,0A1.075,1.075,0,0,1,31.457,2.9Zm-.621,4.468h1.532c.456,0,.839.2.839.587s-.569.678-1.6.678c-.787,0-1.377-.236-1.377-.647,0-.371.383-.556.609-.618Zm5.539-5.218h-.984v5.2h1V4.774a1.561,1.561,0,0,1,.4-1.231,1.587,1.587,0,0,1,1.2-.515,1.173,1.173,0,0,1,.207.021V2.07a1.217,1.217,0,0,0-.321-.041,1.574,1.574,0,0,0-1.5,1.037Zm2.827.39v1a3.036,3.036,0,0,1,1.719-.606c.766,0,1.222.39,1.222,1.037v.2l-1.377.2c-1.263.175-1.957.688-1.957,1.614a1.552,1.552,0,0,0,.526,1.112,1.577,1.577,0,0,0,1.175.388,1.906,1.906,0,0,0,1.708-.924v.8h.932V3.993a1.913,1.913,0,0,0-.629-1.473,1.945,1.945,0,0,0-1.535-.489,3.285,3.285,0,0,0-1.784.514ZM40.67,6.633c-.518,0-.88-.277-.88-.719s.4-.729,1.129-.822l1.242-.154v.267A1.483,1.483,0,0,1,40.67,6.633Zm4.173,2.773h1V6.685a2.151,2.151,0,0,0,1.677.791,2.578,2.578,0,0,0,1.86-.818,2.536,2.536,0,0,0,.677-1.9,2.527,2.527,0,0,0-.656-1.888,2.568,2.568,0,0,0-1.829-.834,2.2,2.2,0,0,0-1.771.88V2.155h-.961Zm.942-4.653a1.624,1.624,0,0,1,.758-1.561,1.652,1.652,0,0,1,1.746,0,1.624,1.624,0,0,1,.758,1.561,1.624,1.624,0,0,1-.758,1.561,1.652,1.652,0,0,1-1.746,0A1.624,1.624,0,0,1,45.785,4.754ZM51.419.1V7.352h1V4.61a1.476,1.476,0,0,1,.36-1.158,1.5,1.5,0,0,1,1.111-.506,1.207,1.207,0,0,1,.912.377,1.187,1.187,0,0,1,.32.928v3.1h1V4.209a1.971,1.971,0,0,0-.52-1.541A2,2,0,0,0,54.1,2.031a1.885,1.885,0,0,0-1.677.845V.1Zm5.85,9.3a1.837,1.837,0,0,0,.756.134c.961,0,1.367-.544,1.677-1.325l2.433-6.05H61.049L59.569,6.089,58.046,2.155H56.917l2.174,5.124-.217.575c-.217.565-.487.822-.942.822a1.182,1.182,0,0,1-.666-.175Zm9.495-7.683a.821.821,0,0,1,.27-.645A.835.835,0,0,1,67.706.86a1.352,1.352,0,0,1,.569.123V.121a1.5,1.5,0,0,0-.725-.147,1.669,1.669,0,0,0-1.281.454,1.641,1.641,0,0,0-.51,1.251v.473h-.725v.835h.725V7.352h1V2.987h1.253V2.155H66.764Zm4.5.318a2.688,2.688,0,0,0-1.942.787,2.645,2.645,0,0,0-.774,1.935,2.713,2.713,0,0,0,5.426,0,2.645,2.645,0,0,0-.772-1.933,2.688,2.688,0,0,0-1.938-.789Zm0,.945a1.718,1.718,0,0,1,1.224.534,1.691,1.691,0,0,1,.464,1.243,1.674,1.674,0,0,1-.814,1.535,1.7,1.7,0,0,1-1.748,0,1.674,1.674,0,0,1-.814-1.535,1.691,1.691,0,0,1,.464-1.243A1.718,1.718,0,0,1,71.268,2.976Zm5.042-.822h-.984v5.2h1V4.774a1.561,1.561,0,0,1,.4-1.231,1.587,1.587,0,0,1,1.2-.515,1.173,1.173,0,0,1,.207.021V2.07a1.218,1.218,0,0,0-.321-.041,1.574,1.574,0,0,0-1.5,1.037Zm6.181,4.427a2.15,2.15,0,0,0,1.771.894,2.568,2.568,0,0,0,1.829-.834,2.527,2.527,0,0,0,.656-1.888,2.527,2.527,0,0,0-.656-1.888,2.568,2.568,0,0,0-1.829-.834,2.151,2.151,0,0,0-1.732.845V.1h-1V7.352h.961Zm1.6-.021A1.706,1.706,0,0,1,82.9,6a1.679,1.679,0,0,1-.428-1.246,1.624,1.624,0,0,1,.758-1.561,1.652,1.652,0,0,1,1.746,0,1.624,1.624,0,0,1,.758,1.561A1.686,1.686,0,0,1,85.3,6,1.713,1.713,0,0,1,84.1,6.561Zm6.171-4.53a2.593,2.593,0,0,0-1.9.8,2.55,2.55,0,0,0-.7,1.929,2.585,2.585,0,0,0,.759,1.952,2.629,2.629,0,0,0,1.964.763A3.136,3.136,0,0,0,92.3,6.965V5.925a2.722,2.722,0,0,1-1.76.627A1.664,1.664,0,0,1,89.3,6.163a1.637,1.637,0,0,1-.575-1.153h3.864a3.182,3.182,0,0,0,.052-.565A2.258,2.258,0,0,0,92,2.715a2.3,2.3,0,0,0-1.728-.683Zm-.021.894a1.342,1.342,0,0,1,.967.348,1.321,1.321,0,0,1,.431.926H88.756a1.464,1.464,0,0,1,1.491-1.274Zm5.4-.894a2.006,2.006,0,0,0-1.445.518,1.974,1.974,0,0,0-.647,1.383,1.849,1.849,0,0,0,.859,1.541.994.994,0,0,0-.466.781.827.827,0,0,0,.342.7,1.348,1.348,0,0,0-.88,1.13c0,.914.911,1.448,2.361,1.448,1.584,0,2.609-.7,2.609-1.592a1.525,1.525,0,0,0-.549-1.1,1.551,1.551,0,0,0-1.19-.345H95.32a.389.389,0,0,1-.285-.1.383.383,0,0,1-.129-.27.433.433,0,0,1,.207-.349,2.339,2.339,0,0,0,.538.062A2.006,2.006,0,0,0,97.1,5.317a1.975,1.975,0,0,0,.647-1.383,1.738,1.738,0,0,0-.269-.945h.859V2.155H96.41a2.286,2.286,0,0,0-.759-.123Zm0,.873A1.075,1.075,0,0,1,96.77,3.932a1.122,1.122,0,0,1-2.236,0A1.075,1.075,0,0,1,95.652,2.9ZM95.03,7.373h1.532c.456,0,.839.2.839.587s-.569.678-1.6.678c-.787,0-1.377-.236-1.377-.647,0-.371.383-.556.609-.618Zm5.063-7.4A.631.631,0,0,0,99.462.6a.625.625,0,0,0,.307.568.636.636,0,0,0,.649,0A.625.625,0,0,0,100.724.6a.631.631,0,0,0-.63-.625Zm-.507,7.375h1v-5.2h-1Zm3.772-4.417V2.155h-.984v5.2h1V4.711a1.561,1.561,0,0,1,.349-1.2,1.587,1.587,0,0,1,1.121-.567,1.2,1.2,0,0,1,.914.375,1.182,1.182,0,0,1,.318.93v3.1h1V4.209a1.952,1.952,0,0,0-.513-1.549,1.985,1.985,0,0,0-1.516-.629,1.778,1.778,0,0,0-1.7.9Zm6.4,0V2.155h-.984v5.2h1V4.711a1.561,1.561,0,0,1,.349-1.2,1.587,1.587,0,0,1,1.121-.567,1.2,1.2,0,0,1,.914.375,1.182,1.182,0,0,1,.318.93v3.1h1V4.209a1.952,1.952,0,0,0-.513-1.549,1.985,1.985,0,0,0-1.516-.629,1.778,1.778,0,0,0-1.7.9Zm7.579-.9a2.593,2.593,0,0,0-1.9.8,2.55,2.55,0,0,0-.7,1.929,2.585,2.585,0,0,0,.759,1.952,2.629,2.629,0,0,0,1.964.763,3.136,3.136,0,0,0,1.905-.514V5.925a2.721,2.721,0,0,1-1.76.627,1.664,1.664,0,0,1-1.237-.388,1.637,1.637,0,0,1-.575-1.153h3.862a3.179,3.179,0,0,0,.052-.565,2.258,2.258,0,0,0-.645-1.731,2.3,2.3,0,0,0-1.729-.682Zm-.021.894a1.342,1.342,0,0,1,.964.348,1.321,1.321,0,0,1,.431.924h-2.889a1.464,1.464,0,0,1,1.491-1.272Zm4.721-.77h-.984v5.2h1V4.774a1.561,1.561,0,0,1,.4-1.231,1.587,1.587,0,0,1,1.2-.515,1.173,1.173,0,0,1,.207.021V2.07a1.217,1.217,0,0,0-.321-.041,1.574,1.574,0,0,0-1.5,1.037Zm4.452-.123c-1.16,0-1.915.668-1.915,1.572,0,.935.818,1.243,1.646,1.5.756.226,1.17.367,1.17.791,0,.4-.352.688-1.056.688a2.389,2.389,0,0,1-1.771-.811V6.88a2.974,2.974,0,0,0,1.843.6c1.191,0,1.957-.616,1.957-1.592,0-1.037-.88-1.325-1.719-1.561-.7-.205-1.087-.39-1.087-.77,0-.349.311-.627.973-.627a2.377,2.377,0,0,1,1.563.616V2.514a2.725,2.725,0,0,0-1.608-.483Zm3.023.627a.632.632,0,1,0,.632-.627.629.629,0,0,0-.632.627Zm0,4.182a.632.632,0,1,0,.632-.627.629.629,0,0,0-.632.627Zm6.533.514h1.025V1.025h2.2V.1H133.85v.924h2.2ZM140.335.1V7.352h1V4.61a1.476,1.476,0,0,1,.358-1.157,1.5,1.5,0,0,1,1.108-.507,1.207,1.207,0,0,1,.912.377,1.187,1.187,0,0,1,.32.928v3.1h1V4.209a1.971,1.971,0,0,0-.521-1.542,2,2,0,0,0-1.509-.636,1.885,1.885,0,0,0-1.679.845V.1Zm8.557,1.93a2.592,2.592,0,0,0-1.9.8,2.55,2.55,0,0,0-.7,1.929,2.585,2.585,0,0,0,.759,1.952,2.629,2.629,0,0,0,1.964.763,3.136,3.136,0,0,0,1.905-.514V5.925a2.721,2.721,0,0,1-1.76.627,1.664,1.664,0,0,1-1.237-.388,1.637,1.637,0,0,1-.575-1.153h3.862a3.182,3.182,0,0,0,.052-.565,2.259,2.259,0,0,0-.644-1.73,2.3,2.3,0,0,0-1.727-.684Zm-.022.894a1.342,1.342,0,0,1,.967.348,1.321,1.321,0,0,1,.431.926h-2.889a1.464,1.464,0,0,1,1.491-1.274ZM4.5,17.055a2.953,2.953,0,0,0-1.439-.349,2.722,2.722,0,1,0-.01,5.444,2.88,2.88,0,0,0,1.47-.349V20.794a2.344,2.344,0,0,1-1.387.411,1.777,1.777,0,1,1,0-3.554,2.573,2.573,0,0,1,1.367.4Zm3.624-.349a2.745,2.745,0,0,0-2.557,1.659,2.706,2.706,0,0,0,.575,2.977,2.76,2.76,0,0,0,2.994.6,2.722,2.722,0,0,0,1.7-2.518,2.645,2.645,0,0,0-.773-1.934,2.688,2.688,0,0,0-1.94-.788Zm0,.945a1.8,1.8,0,0,1,1.73,1.025,1.769,1.769,0,0,1-.322,1.974,1.8,1.8,0,0,1-1.967.432,1.78,1.78,0,0,1-1.132-1.654,1.691,1.691,0,0,1,.465-1.244,1.718,1.718,0,0,1,1.225-.533Zm4.059-.822v5.2h1V19.385a1.561,1.561,0,0,1,.349-1.2,1.587,1.587,0,0,1,1.121-.567,1.2,1.2,0,0,1,.914.375,1.182,1.182,0,0,1,.318.93v3.1h1V19.385a1.561,1.561,0,0,1,.349-1.2,1.587,1.587,0,0,1,1.121-.567,1.2,1.2,0,0,1,.916.375,1.182,1.182,0,0,1,.318.931v3.1h1V18.883a1.952,1.952,0,0,0-.513-1.549,1.985,1.985,0,0,0-1.516-.629,2.06,2.06,0,0,0-1.895,1.079,1.911,1.911,0,0,0-1.812-1.079,1.778,1.778,0,0,0-1.7.9v-.781Zm10.105,7.252h1.007V21.359a2.151,2.151,0,0,0,1.677.791,2.578,2.578,0,0,0,1.86-.818,2.536,2.536,0,0,0,.677-1.9,2.527,2.527,0,0,0-.656-1.888,2.568,2.568,0,0,0-1.829-.834,2.2,2.2,0,0,0-1.771.88v-.757h-.961Zm.942-4.653a1.624,1.624,0,0,1,.758-1.561,1.652,1.652,0,0,1,1.746,0,1.624,1.624,0,0,1,.758,1.561,1.624,1.624,0,0,1-.758,1.561,1.652,1.652,0,0,1-1.746,0,1.624,1.624,0,0,1-.758-1.561Zm5.57,1.3a1.241,1.241,0,0,0,.336,1.038,1.263,1.263,0,0,0,1.031.379,1.24,1.24,0,0,0,.466-.082v-.894a.928.928,0,0,1-.342.062c-.393,0-.487-.288-.487-.678V14.775h-1Zm5.144-4.027a2.593,2.593,0,0,0-1.9.8,2.55,2.55,0,0,0-.7,1.929A2.585,2.585,0,0,0,32.1,21.39a2.629,2.629,0,0,0,1.964.763,3.136,3.136,0,0,0,1.905-.514V20.6a2.722,2.722,0,0,1-1.76.627,1.664,1.664,0,0,1-1.237-.388,1.637,1.637,0,0,1-.575-1.153H36.26a3.182,3.182,0,0,0,.052-.565,2.258,2.258,0,0,0-.644-1.73,2.3,2.3,0,0,0-1.727-.684Zm-.021.894a1.342,1.342,0,0,1,.967.348,1.321,1.321,0,0,1,.431.926H32.43A1.464,1.464,0,0,1,33.921,17.6Zm6.4,3.462a1.287,1.287,0,0,1-.621.164.74.74,0,0,1-.849-.853V17.658h1.346v-.829H38.848V15.3l-.973.308v1.222h-.816v.832h.787V20.5a1.493,1.493,0,0,0,.424,1.21,1.519,1.519,0,0,0,1.212.443,1.7,1.7,0,0,0,.839-.175Zm3.313-4.355a2.593,2.593,0,0,0-1.9.8,2.55,2.55,0,0,0-.7,1.929,2.585,2.585,0,0,0,.759,1.952,2.629,2.629,0,0,0,1.964.763,3.136,3.136,0,0,0,1.905-.514V20.6a2.722,2.722,0,0,1-1.76.627,1.664,1.664,0,0,1-1.237-.388,1.637,1.637,0,0,1-.575-1.153h3.862A3.182,3.182,0,0,0,46,19.12a2.258,2.258,0,0,0-.644-1.73,2.3,2.3,0,0,0-1.726-.684Zm-.021.894a1.342,1.342,0,0,1,.967.348,1.321,1.321,0,0,1,.431.926H42.122A1.464,1.464,0,0,1,43.612,17.6Zm7.953-.894a2.006,2.006,0,0,0-1.445.518,1.974,1.974,0,0,0-.647,1.383,1.849,1.849,0,0,0,.859,1.541.994.994,0,0,0-.466.781.827.827,0,0,0,.342.7,1.348,1.348,0,0,0-.88,1.13c0,.914.911,1.448,2.361,1.448,1.584,0,2.609-.7,2.609-1.592a1.525,1.525,0,0,0-.549-1.1,1.551,1.551,0,0,0-1.19-.345H51.233a.389.389,0,0,1-.285-.1.383.383,0,0,1-.129-.27.433.433,0,0,1,.207-.349,2.338,2.338,0,0,0,.538.062,2.006,2.006,0,0,0,1.445-.518,1.975,1.975,0,0,0,.647-1.383,1.738,1.738,0,0,0-.269-.945h.859v-.835H52.323A2.286,2.286,0,0,0,51.564,16.706Zm0,.873a1.027,1.027,0,1,1-1.118,1.027,1.075,1.075,0,0,1,1.118-1.027Zm-.621,4.468h1.532c.456,0,.839.2.839.587s-.569.678-1.6.678c-.787,0-1.377-.236-1.377-.647,0-.371.383-.556.611-.618Zm8.19-.8v.781h.984v-5.2h-1V19.47a1.562,1.562,0,0,1-.349,1.2,1.587,1.587,0,0,1-1.121.567,1.2,1.2,0,0,1-.914-.375,1.182,1.182,0,0,1-.318-.93v-3.1h-1v3.143a1.952,1.952,0,0,0,.513,1.549,1.985,1.985,0,0,0,1.516.629,1.778,1.778,0,0,0,1.7-.9ZM62.4,14.651a.627.627,0,1,0,.632.627.631.631,0,0,0-.632-.627ZM61.9,22.027H62.9v-5.2H61.9Zm6.616-.77v.77h.961V14.775h-1v2.776a2.151,2.151,0,0,0-1.729-.842,2.568,2.568,0,0,0-1.829.834,2.527,2.527,0,0,0-.656,1.888,2.527,2.527,0,0,0,.656,1.888,2.568,2.568,0,0,0,1.829.834,2.15,2.15,0,0,0,1.771-.9Zm-1.6-.021a1.713,1.713,0,0,1-1.2-.561,1.686,1.686,0,0,1-.433-1.247,1.624,1.624,0,0,1,.758-1.561,1.652,1.652,0,0,1,1.746,0,1.624,1.624,0,0,1,.758,1.561,1.679,1.679,0,0,1-.427,1.245,1.706,1.706,0,0,1-1.2.563Zm6.513-4.53a2.593,2.593,0,0,0-1.9.8,2.55,2.55,0,0,0-.7,1.929,2.585,2.585,0,0,0,.759,1.952,2.629,2.629,0,0,0,1.964.763,3.136,3.136,0,0,0,1.905-.514V20.6a2.722,2.722,0,0,1-1.76.627,1.664,1.664,0,0,1-1.237-.388,1.637,1.637,0,0,1-.575-1.153h3.862a3.18,3.18,0,0,0,.052-.565,2.258,2.258,0,0,0-.644-1.73,2.3,2.3,0,0,0-1.726-.684ZM73.4,17.6a1.342,1.342,0,0,1,.967.348,1.321,1.321,0,0,1,.431.926H71.91A1.464,1.464,0,0,1,73.4,17.6Zm3.417,3.914a.632.632,0,1,0,.632-.627A.629.629,0,0,0,76.816,21.513Z" transform="translate(424.956 353.658)" fill="#1e1f21"/>
        <path id="Path_14647" data-name="Path 14647" d="M8.875,0H45.853c4.9,0,8.875,2.535,8.875,5.663v23.6c0,3.127-3.973,5.663-8.875,5.663H8.875C3.973,34.921,0,32.385,0,29.258V5.663C0,2.535,3.973,0,8.875,0Z" transform="translate(358.43 347.776)" fill="#d9d9d9"/>
        <path id="Path_14665" data-name="Path 14665" d="M6.62,12.909c3.532,0,6.266-2.236,6.266-6.022C12.886,3.171,10.15.97,6.62.97S.355,3.171.355,6.886C.355,10.672,3.088,12.909,6.62,12.909Zm0-2.275c-1.849,0-3.248-1.394-3.248-3.733,0-2.307,1.405-3.663,3.248-3.663S9.869,4.594,9.869,6.9c0,2.345-1.4,3.736-3.248,3.736Zm10.774,2.1H20.6l3.624-8.7H21.459l-2.307,6.251h-.035L16.862,4.034H13.72Zm16.01-4.6c0-2.853-1.722-4.244-4.171-4.244-2.964,0-4.775,1.708-4.775,4.578,0,2.765,1.81,4.4,4.721,4.4,2.5,0,4.171-1.162,4.224-3.155H31.026c-.074.845-.745,1.215-1.793,1.215-1.207,0-1.935-.616-2.059-2.043H33.4Zm-2.378-.669H27.246a1.765,1.765,0,0,1,.64-1.242,1.794,1.794,0,0,1,1.348-.4c1.118,0,1.793.514,1.793,1.5Zm3.568,5.265h2.7V8.982c0-1.937.8-2.87,1.952-2.87.852,0,1.367.514,1.367,1.779,0,.264-.018.7-.053,1.127h2.449c.035-.458.089-1.233.089-1.726,0-2.254-1.047-3.4-2.84-3.4a2.909,2.909,0,0,0-3.032,2.624h-.038l.107-2.483h-2.7Zm12.549,0h3.213l3.624-8.7H51.208L48.9,10.285h-.035L46.61,4.034H43.469Zm7.881-9.612h2.7V.993h-2.7Zm0,9.612h2.7v-8.7h-2.7Zm12.9-4.6c0-2.853-1.722-4.244-4.171-4.244-2.964,0-4.775,1.708-4.775,4.578,0,2.765,1.81,4.4,4.721,4.4,2.5,0,4.171-1.162,4.224-3.155H65.549c-.074.845-.745,1.215-1.793,1.215-1.207,0-1.935-.616-2.059-2.043h6.23Zm-2.378-.669H61.769a1.765,1.765,0,0,1,.64-1.242,1.794,1.794,0,0,1,1.348-.4c1.118,0,1.793.514,1.793,1.5Zm5.325,5.265h3.195L75.6,7.01h.053l1.438,5.723h3.319l2.449-8.7h-2.52l-1.544,6.11h-.018L77.14,4.034H74.46l-1.686,6.11h-.035l-1.473-6.11h-2.84Z" transform="translate(88.238 44.497)" fill="#1e1f21"/>
        <path id="Path_14666" data-name="Path 14666" d="M0,0H160.684" transform="translate(453.047 114.156) rotate(90)" fill="none" stroke="#e8eaf2" stroke-width="0.493"/>
        <path id="Path_14667" data-name="Path 14667" d="M0,0H505.364" transform="translate(88.061 274.614)" fill="none" stroke="#e8eaf2" stroke-width="0.493"/>
        <path id="Path_14668" data-name="Path 14668" d="M0,0H505.364" transform="translate(88.061 114.46)" fill="none" stroke="#e8eaf2" stroke-width="0.493"/>
        <path id="Path_14669" data-name="Path 14669" d="M0,0H329.848" transform="translate(93.977 213.833)" fill="none" stroke="#f7f8f9" stroke-width="0.493"/>
        <path id="Path_14670" data-name="Path 14670" d="M0,0H329.848" transform="translate(93.977 184.541)" fill="none" stroke="#f7f8f9" stroke-width="0.493"/>
        <path id="Path_14671" data-name="Path 14671" d="M0,0H329.848" transform="translate(93.977 155.248)" fill="none" stroke="#f7f8f9" stroke-width="0.493"/>
        <path id="Path_14672" data-name="Path 14672" d="M0,0H329.848" transform="translate(93.977 125.956)" fill="none" stroke="#f7f8f9" stroke-width="0.493"/>
        <path id="Path_14673" data-name="Path 14673" d="M0,0H329.848" transform="translate(93.977 243.125)" fill="none" stroke="#f7f8f9" stroke-width="0.493"/>
        <path id="Path_14674" data-name="Path 14674" d="M0,0H24.406" transform="translate(100.633 213.833)" fill="none" stroke="#2a54c7" stroke-width="0.986"/>
        <path id="Path_14675" data-name="Path 14675" d="M28.1,0,0,8.071" transform="translate(124.196 205.772)" fill="none" stroke="#2a54c7" stroke-width="0.986"/>
        <path id="Path_14676" data-name="Path 14676" d="M0,2.2,51.03,0" transform="translate(152.271 203.579)" fill="none" stroke="#2a54c7" stroke-width="0.986"/>
        <path id="Path_14677" data-name="Path 14677" d="M79.134,13.941,0,0" transform="translate(261.621 170.619)" fill="none" stroke="#2a54c7" stroke-width="0.986"/>
        <path id="Path_14678" data-name="Path 14678" d="M0,33.017,58.426,0" transform="translate(203.255 170.607)" fill="none" stroke="#2a54c7" stroke-width="0.986"/>
        <path id="Path_14679" data-name="Path 14679" d="M0,32.283,53.989,0" transform="translate(340.697 152.302)" fill="none" stroke="#2a54c7" stroke-width="0.986"/>
        <path id="Path_14680" data-name="Path 14680" d="M28.843,2.935,0,0" transform="translate(394.653 152.318)" fill="none" stroke="#2a54c7" stroke-width="0.986"/>
        <path id="Path_14681" data-name="Path 14681" d="M0,0V117.394" transform="translate(93.977 125.895)" fill="none" stroke="#f7f8f9" stroke-width="0.493"/>
        <path id="Path_14682" data-name="Path 14682" d="M0,0H17.75V17.609H0Z" transform="translate(88.061 117.162)" fill="#fff"/>
        <path id="Path_14683" data-name="Path 14683" d="M0,0H17.75V17.609H0Z" transform="translate(88.061 146.452)" fill="#fff"/>
        <path id="Path_14684" data-name="Path 14684" d="M0,0H17.75V17.609H0Z" transform="translate(88.061 175.742)" fill="#fff"/>
        <path id="Path_14685" data-name="Path 14685" d="M0,0H17.75V17.609H0Z" transform="translate(88.061 205.033)" fill="#fff"/>
        <path id="Path_14686" data-name="Path 14686" d="M0,0H17.75V17.609H0Z" transform="translate(88.061 234.323)" fill="#fff"/>
        <path id="Path_14687" data-name="Path 14687" d="M.118.811v.675a1.734,1.734,0,0,0,1.006.3,1.455,1.455,0,0,0,1.119-.434,1.431,1.431,0,0,0,.4-1.122V-3.474H2.012v3.6c0,.69-.34,1.064-.939,1.064A1.42,1.42,0,0,1,.118.811ZM3.89-1.72v.631a2.16,2.16,0,0,1,1.228-.44c.562,0,.924.293.924.814v.147L5-.422C4.112-.3,3.616.077,3.616.723a1.1,1.1,0,0,0,.373.789,1.119,1.119,0,0,0,.833.275A1.407,1.407,0,0,0,6.087,1.06V1.7h.577V-.708a1.337,1.337,0,0,0-.43-1.035,1.36,1.36,0,0,0-1.071-.352A2.325,2.325,0,0,0,3.89-1.72ZM4.918,1.258a.614.614,0,0,1-.47-.137A.6.6,0,0,1,4.23.686c0-.352.311-.572.873-.646l.954-.125V.151A1.145,1.145,0,0,1,4.918,1.258Zm3.6-2.641v-.624H7.906V1.7h.629V-.209A1.184,1.184,0,0,1,8.811-1.1a1.2,1.2,0,0,1,.841-.421.906.906,0,0,1,.689.287.891.891,0,0,1,.235.7V1.7H11.2V-.561a1.383,1.383,0,0,0-.364-1.087,1.406,1.406,0,0,0-1.063-.446A1.306,1.306,0,0,0,8.52-1.383Z" transform="translate(117.607 253.881)" fill="#a5a5a6"/>
        <path id="Path_14688" data-name="Path 14688" d="M.493,1.7h.636V-.561H3.148v-.565H1.129V-2.894h2.33v-.58H.493ZM5.781-2.087a1.846,1.846,0,0,0-1.349.57,1.816,1.816,0,0,0-.5,1.367,1.839,1.839,0,0,0,.535,1.39,1.869,1.869,0,0,0,1.395.547A2.291,2.291,0,0,0,7.223,1.42V.767a1.979,1.979,0,0,1-1.272.44A1.264,1.264,0,0,1,5.007.893,1.243,1.243,0,0,1,4.59,0H7.43a1.887,1.887,0,0,0,.037-.374A1.607,1.607,0,0,0,7.006-1.6a1.634,1.634,0,0,0-1.225-.484Zm-.015.558a1.045,1.045,0,0,1,.754.281,1.028,1.028,0,0,1,.325.731H4.612A1.137,1.137,0,0,1,5.766-1.53ZM9.057,1.09a1.536,1.536,0,0,0,1.3.7,1.837,1.837,0,0,0,1.3-.594A1.807,1.807,0,0,0,12.134-.15a1.809,1.809,0,0,0-.47-1.347,1.839,1.839,0,0,0-1.305-.6,1.516,1.516,0,0,0-1.279.675V-3.474H8.451V1.7h.606Zm1.205.125a1.277,1.277,0,0,1-.9-.424A1.256,1.256,0,0,1,9.042-.15,1.254,1.254,0,0,1,9.355-1.1a1.275,1.275,0,0,1,.907-.426,1.3,1.3,0,0,1,.909.428A1.278,1.278,0,0,1,11.5-.15a1.276,1.276,0,0,1-.328.94,1.3,1.3,0,0,1-.907.425Z" transform="translate(145.136 253.881)" fill="#a5a5a6"/>
        <path id="Path_14689" data-name="Path 14689" d="M3.274.437,5.019-2.256V1.7h.636V-3.474H5.078l-2,3.162-2-3.162H.493V1.7h.636V-2.256L2.874.437ZM6.964-1.72v.631a2.16,2.16,0,0,1,1.228-.44c.562,0,.924.293.924.814v.147L8.073-.422C7.186-.3,6.69.077,6.69.723a1.1,1.1,0,0,0,.373.789,1.119,1.119,0,0,0,.833.275A1.407,1.407,0,0,0,9.161,1.06V1.7h.577V-.708a1.337,1.337,0,0,0-.43-1.035,1.36,1.36,0,0,0-1.071-.352,2.325,2.325,0,0,0-1.272.374ZM7.992,1.258a.614.614,0,0,1-.47-.137A.6.6,0,0,1,7.3.686c0-.352.311-.572.873-.646l.954-.125V.151A1.145,1.145,0,0,1,7.992,1.258Zm3.6-3.265H10.98V1.7h.629V-.165a1.149,1.149,0,0,1,.279-.912,1.168,1.168,0,0,1,.875-.394.838.838,0,0,1,.148.015v-.616a1.379,1.379,0,0,0-.214-.022,1.144,1.144,0,0,0-1.1.778Z" transform="translate(172.478 253.881)" fill="#a5a5a6"/>
        <path id="Path_14690" data-name="Path 14690" d="M.044,1.7H.7L1.287.209H3.543L4.127,1.7h.666L2.751-3.474H2.078ZM1.494-.385l.924-2.392L3.335-.385ZM5.5,3.166h.621V1.148a1.557,1.557,0,0,0,1.257.638A1.842,1.842,0,0,0,8.7,1.2,1.812,1.812,0,0,0,9.185-.15,1.809,1.809,0,0,0,8.716-1.5a1.839,1.839,0,0,0-1.305-.6,1.56,1.56,0,0,0-1.309.7v-.616H5.5ZM6.087-.15A1.26,1.26,0,0,1,6.4-1.1a1.281,1.281,0,0,1,.91-.425,1.3,1.3,0,0,1,.909.428,1.278,1.278,0,0,1,.326.944,1.277,1.277,0,0,1-.331.942,1.3,1.3,0,0,1-.912.422A1.281,1.281,0,0,1,6.4.789a1.261,1.261,0,0,1-.318-.94ZM10.8-2.007h-.614V1.7h.629V-.165a1.149,1.149,0,0,1,.279-.912,1.168,1.168,0,0,1,.875-.394.838.838,0,0,1,.148.015v-.616a1.379,1.379,0,0,0-.214-.022,1.144,1.144,0,0,0-1.1.778Z" transform="translate(199.596 253.88)" fill="#a5a5a6"/>
        <path id="Path_14691" data-name="Path 14691" d="M3.274.437,5.019-2.256V1.7h.636V-3.474H5.078l-2,3.162-2-3.162H.493V1.7h.636V-2.256L2.874.437ZM6.964-1.72v.631a2.16,2.16,0,0,1,1.228-.44c.562,0,.924.293.924.814v.147L8.073-.422C7.186-.3,6.69.077,6.69.723a1.1,1.1,0,0,0,.373.789,1.119,1.119,0,0,0,.833.275A1.407,1.407,0,0,0,9.161,1.06V1.7h.577V-.708a1.337,1.337,0,0,0-.43-1.035,1.36,1.36,0,0,0-1.071-.352,2.325,2.325,0,0,0-1.272.374ZM7.992,1.258a.614.614,0,0,1-.47-.137A.6.6,0,0,1,7.3.686c0-.352.311-.572.873-.646l.954-.125V.151A1.145,1.145,0,0,1,7.992,1.258Zm2.566,1.893a1.223,1.223,0,0,0,.532.1c.636,0,.917-.36,1.146-.924L14-2.007h-.673L12.2.906,11.054-2.007h-.7L11.9,1.647l-.177.462c-.17.433-.355.609-.68.609a.893.893,0,0,1-.481-.125Z" transform="translate(227.161 253.88)" fill="#a5a5a6"/>
        <path id="Path_14692" data-name="Path 14692" d="M.118.811v.675a1.734,1.734,0,0,0,1.006.3,1.455,1.455,0,0,0,1.119-.434,1.431,1.431,0,0,0,.4-1.122V-3.474H2.012v3.6c0,.69-.34,1.064-.939,1.064A1.42,1.42,0,0,1,.118.811Zm6.4.264V1.7h.614V-2.007H6.5V-.1A1.179,1.179,0,0,1,6.226.8a1.2,1.2,0,0,1-.842.419A.912.912,0,0,1,4.692.929a.9.9,0,0,1-.24-.7v-2.23H3.831V.253a1.379,1.379,0,0,0,.363,1.088,1.4,1.4,0,0,0,1.065.445,1.306,1.306,0,0,0,1.257-.712ZM9.045-1.383v-.624H8.431V1.7H9.06V-.209A1.184,1.184,0,0,1,9.336-1.1a1.2,1.2,0,0,1,.841-.421.906.906,0,0,1,.689.287.891.891,0,0,1,.235.7V1.7h.629V-.561a1.383,1.383,0,0,0-.364-1.087A1.406,1.406,0,0,0,10.3-2.095a1.306,1.306,0,0,0-1.257.712Z" transform="translate(254.317 253.881)" fill="#a5a5a6"/>
        <path id="Path_14693" data-name="Path 14693" d="M.118.811v.675a1.734,1.734,0,0,0,1.006.3,1.455,1.455,0,0,0,1.119-.434,1.431,1.431,0,0,0,.4-1.122V-3.474H2.012v3.6c0,.69-.34,1.064-.939,1.064A1.42,1.42,0,0,1,.118.811Zm6.4.264V1.7h.614V-2.007H6.5V-.1A1.179,1.179,0,0,1,6.226.8a1.2,1.2,0,0,1-.842.419A.912.912,0,0,1,4.692.929a.9.9,0,0,1-.24-.7v-2.23H3.831V.253a1.379,1.379,0,0,0,.363,1.088,1.4,1.4,0,0,0,1.065.445,1.306,1.306,0,0,0,1.257-.712ZM8.387.848a.829.829,0,0,0,.229.69.844.844,0,0,0,.688.249.894.894,0,0,0,.311-.051V1.17a.6.6,0,0,1-.237.044c-.281,0-.362-.191-.362-.47V-3.474H8.387Z" transform="translate(281.659 253.881)" fill="#a5a5a6"/>
        <path id="Path_14694" data-name="Path 14694" d="M.044,1.7H.7L1.287.209H3.543L4.127,1.7h.666L2.751-3.474H2.078ZM1.494-.385l.924-2.392L3.335-.385Zm6.575,1.46V1.7h.614V-2.007H8.054V-.1A1.179,1.179,0,0,1,7.779.8a1.2,1.2,0,0,1-.842.419A.912.912,0,0,1,6.245.929a.9.9,0,0,1-.24-.7v-2.23H5.384V.253a1.379,1.379,0,0,0,.363,1.088,1.4,1.4,0,0,0,1.065.445,1.306,1.306,0,0,0,1.257-.712Zm3.084-3.17a1.412,1.412,0,0,0-1.023.364,1.389,1.389,0,0,0-.456.979A1.3,1.3,0,0,0,10.31.363a.708.708,0,0,0-.348.55.607.607,0,0,0,.251.5.963.963,0,0,0-.636.807c0,.646.643,1.035,1.664,1.035,1.1,0,1.827-.484,1.827-1.123a1.068,1.068,0,0,0-.381-.774,1.086,1.086,0,0,0-.832-.246h-.984a.3.3,0,0,1-.214-.075.293.293,0,0,1-.1-.2.335.335,0,0,1,.192-.279,1.753,1.753,0,0,0,.4.044A1.412,1.412,0,0,0,12.169.226a1.389,1.389,0,0,0,.448-.978,1.248,1.248,0,0,0-.229-.726h.651v-.528H11.678A1.546,1.546,0,0,0,11.153-2.095Zm0,.55a.832.832,0,0,1,.595.22.819.819,0,0,1,.263.573.82.82,0,0,1-.261.577.834.834,0,0,1-.6.223.843.843,0,0,1-.6-.22.829.829,0,0,1-.269-.58A.835.835,0,0,1,11.153-1.544Zm-.459,3.214h1.117c.355,0,.643.161.643.47,0,.33-.444.558-1.2.558-.606,0-1.05-.2-1.05-.528C10.206,1.882,10.48,1.728,10.694,1.669Z" transform="translate(308.963 253.88)" fill="#a5a5a6"/>
        <path id="Path_14695" data-name="Path 14695" d="M2.021-3.529A1.494,1.494,0,0,0,.87-3.2,1.47,1.47,0,0,0,.342-2.128C.342-1.3,1-.983,1.7-.682c.747.323,1.169.543,1.169,1.027,0,.536-.5.873-1.1.873A2.335,2.335,0,0,1,.306.638v.726a2.6,2.6,0,0,0,1.479.448A1.582,1.582,0,0,0,3,1.456,1.556,1.556,0,0,0,3.56.323C3.56-.55,2.864-.866,2.1-1.2c-.7-.293-1.08-.514-1.08-.969,0-.484.451-.763,1.021-.763a2.239,2.239,0,0,1,1.25.4v-.668a2.5,2.5,0,0,0-1.265-.338ZM6.1-2.054a1.846,1.846,0,0,0-1.349.57,1.816,1.816,0,0,0-.5,1.367,1.839,1.839,0,0,0,.535,1.39,1.869,1.869,0,0,0,1.395.547,2.291,2.291,0,0,0,1.361-.367V.8a1.979,1.979,0,0,1-1.272.44A1.264,1.264,0,0,1,5.33.926a1.243,1.243,0,0,1-.417-.9h2.84A1.887,1.887,0,0,0,7.79-.345,1.607,1.607,0,0,0,7.329-1.57,1.634,1.634,0,0,0,6.1-2.054ZM6.089-1.5a1.045,1.045,0,0,1,.754.281,1.028,1.028,0,0,1,.325.731H4.935A1.137,1.137,0,0,1,6.089-1.5ZM8.774,3.2h.621V1.181a1.557,1.557,0,0,0,1.257.638,1.842,1.842,0,0,0,1.321-.585,1.812,1.812,0,0,0,.484-1.352,1.809,1.809,0,0,0-.47-1.347,1.839,1.839,0,0,0-1.305-.6,1.56,1.56,0,0,0-1.309.7v-.616h-.6ZM9.358-.117a1.26,1.26,0,0,1,.317-.947,1.281,1.281,0,0,1,.91-.425,1.3,1.3,0,0,1,.909.428,1.278,1.278,0,0,1,.326.944,1.277,1.277,0,0,1-.331.942,1.3,1.3,0,0,1-.912.422,1.281,1.281,0,0,1-.9-.425,1.261,1.261,0,0,1-.318-.94Z" transform="translate(336.435 253.847)" fill="#a5a5a6"/>
        <path id="Path_14696" data-name="Path 14696" d="M2.934-3.533a2.654,2.654,0,0,0-1.909.773,2.611,2.611,0,0,0-.769,1.9,2.613,2.613,0,0,0,.766,1.9,2.656,2.656,0,0,0,1.911.776A2.656,2.656,0,0,0,4.845,1.04a2.613,2.613,0,0,0,.766-1.9,2.611,2.611,0,0,0-.769-1.9,2.654,2.654,0,0,0-1.909-.773Zm0,.624a2.026,2.026,0,0,1,1.444.6A1.993,1.993,0,0,1,4.953-.862,2,2,0,0,1,4.38.587a2.028,2.028,0,0,1-1.446.6A2.032,2.032,0,0,1,1.489.586,2,2,0,0,1,.915-.862a2,2,0,0,1,.576-1.444A2.03,2.03,0,0,1,2.934-2.909ZM9.309-1.816a2.084,2.084,0,0,0-1.021-.249,1.911,1.911,0,0,0-1.4.555,1.88,1.88,0,0,0-.554,1.39A1.881,1.881,0,0,0,6.89,1.26a1.912,1.912,0,0,0,1.391.555,2.039,2.039,0,0,0,1.05-.249V.935a1.745,1.745,0,0,1-1,.286A1.306,1.306,0,0,1,7.359.845a1.284,1.284,0,0,1-.38-.966,1.285,1.285,0,0,1,.375-.968,1.306,1.306,0,0,1,.971-.382,1.8,1.8,0,0,1,.984.279Zm2.884,2.942a.942.942,0,0,1-.444.11.571.571,0,0,1-.481-.165A.561.561,0,0,1,11.113.59v-2.04h.961V-1.97h-.961V-3.056l-.614.191v.9H9.915v.521h.569V.664a1.041,1.041,0,0,0,.293.839,1.059,1.059,0,0,0,.838.313,1.229,1.229,0,0,0,.577-.117Z" transform="translate(363.753 253.852)" fill="#a5a5a6"/>
        <path id="Path_14697" data-name="Path 14697" d="M4.05-3.474V.554l-3-4.028H.493V1.7h.643V-2.337l3,4.035h.555V-3.474ZM7.615-2.087a1.911,1.911,0,0,0-1.376.563A1.88,1.88,0,0,0,5.692-.15a1.88,1.88,0,0,0,.546,1.374,1.911,1.911,0,0,0,1.376.563,1.911,1.911,0,0,0,1.376-.563A1.88,1.88,0,0,0,9.538-.15a1.88,1.88,0,0,0-.546-1.374,1.911,1.911,0,0,0-1.376-.563Zm0,.587a1.3,1.3,0,0,1,.928.406,1.283,1.283,0,0,1,.351.944,1.283,1.283,0,0,1-.351.944,1.3,1.3,0,0,1-.928.406A1.3,1.3,0,0,1,6.686.794,1.283,1.283,0,0,1,6.335-.15a1.283,1.283,0,0,1,.351-.944A1.3,1.3,0,0,1,7.615-1.5Zm4.393,3.2,1.531-3.705h-.673L11.719.87,10.58-2.007H9.907L11.431,1.7Z" transform="translate(391.212 253.881)" fill="#a5a5a6"/>
        <path id="Path_14698" data-name="Path 14698" d="M.493,1.7H2.268A2.58,2.58,0,0,0,4.139.955,2.538,2.538,0,0,0,4.893-.9a2.539,2.539,0,0,0-.763-1.84,2.58,2.58,0,0,0-1.863-.736H.493Zm.636-.58V-2.894h1.08a2,2,0,0,1,1.433.576A1.969,1.969,0,0,1,4.228-.9,1.973,1.973,0,0,1,3.648.534a2.005,2.005,0,0,1-1.44.585ZM7.467-2.087a1.846,1.846,0,0,0-1.349.57,1.816,1.816,0,0,0-.5,1.367,1.839,1.839,0,0,0,.535,1.39,1.869,1.869,0,0,0,1.395.547A2.291,2.291,0,0,0,8.909,1.42V.767a1.979,1.979,0,0,1-1.272.44A1.264,1.264,0,0,1,6.694.893,1.243,1.243,0,0,1,6.276,0h2.84a1.887,1.887,0,0,0,.037-.374A1.607,1.607,0,0,0,8.692-1.6a1.634,1.634,0,0,0-1.225-.484Zm-.015.558a1.045,1.045,0,0,1,.754.281,1.028,1.028,0,0,1,.325.731H6.3A1.137,1.137,0,0,1,7.452-1.529ZM12.8-1.845a2.084,2.084,0,0,0-1.021-.249,1.911,1.911,0,0,0-1.4.555A1.88,1.88,0,0,0,9.826-.15a1.881,1.881,0,0,0,.554,1.382,1.912,1.912,0,0,0,1.391.555,2.039,2.039,0,0,0,1.05-.249V.906a1.745,1.745,0,0,1-1,.286,1.306,1.306,0,0,1-.974-.377,1.284,1.284,0,0,1-.38-.966,1.285,1.285,0,0,1,.375-.968,1.306,1.306,0,0,1,.971-.382,1.8,1.8,0,0,1,.984.279Z" transform="translate(418.555 253.881)" fill="#a5a5a6"/>
        <path id="Path_14699" data-name="Path 14699" d="M2.174,1.813C3.55,1.813,4.053.485,4.053-.858s-.5-2.671-1.879-2.671S.3-2.208.3-.858.806,1.813,2.174,1.813ZM.954-.858c0-1.247.4-2.069,1.22-2.069s1.22.822,1.22,2.069S3,1.212,2.174,1.212.954.39.954-.858Z" transform="translate(91.906 243.602)" fill="#a5a5a6"/>
        <path id="Path_14700" data-name="Path 14700" d="M1.41-2.74V1.7h.643V-3.474H1.5L.153-2.689v.653ZM4.176-1.067V-3.474H3.54V1.7h.636V-.2l.562-.624L6.757,1.7h.806l-2.4-2.957L7.3-3.474H6.491Z" transform="translate(91.835 214.337)" fill="#a5a5a6"/>
        <path id="Path_14701" data-name="Path 14701" d="M2.352-1.117.251,1.319v.411H3.439V1.172h-2.3L2.773-.677a1.99,1.99,0,0,0,.621-1.35,1.543,1.543,0,0,0-.519-1.115A1.568,1.568,0,0,0,1.7-3.531a2.025,2.025,0,0,0-1.383.514v.756A1.826,1.826,0,0,1,1.7-2.922a.961.961,0,0,1,.711.233.946.946,0,0,1,.324.67,1.42,1.42,0,0,1-.385.9Zm2.892.081V-3.443H4.607V1.729h.636v-1.9l.562-.624L7.825,1.729h.806l-2.4-2.957L8.372-3.443H7.558Z" transform="translate(91.884 185.015)" fill="#a5a5a6"/>
        <path id="Path_14702" data-name="Path 14702" d="M.434-2.322a1.613,1.613,0,0,1,1.279-.609c.666,0,1.035.382,1.035.844,0,.514-.392.9-1.22.9H1.062v.558h.6c.814,0,1.25.374,1.25.924s-.422.924-1.176.924a1.889,1.889,0,0,1-1.45-.7V1.3a2.188,2.188,0,0,0,1.5.514c1.146,0,1.76-.682,1.76-1.46A1.289,1.289,0,0,0,2.608-.957a1.215,1.215,0,0,0,.8-1.2,1.463,1.463,0,0,0-.521-1.033,1.487,1.487,0,0,0-1.113-.339,2.016,2.016,0,0,0-1.339.462Zm4.94,1.284V-3.445H4.738V1.728h.636v-1.9L5.936-.8,7.955,1.728h.806l-2.4-2.957L8.5-3.445H7.689Z" transform="translate(91.901 155.725)" fill="#a5a5a6"/>
        <path id="Path_14703" data-name="Path 14703" d="M3.991-.209h-.74V-3.474H2.66L.123-.055V.363H2.608V1.691h.651V.363h.732Zm-3.084,0,1.7-2.311V-.209Zm4.807-.858V-3.474H5.078V1.7h.636V-.2l.562-.624L8.3,1.7H9.1l-2.4-2.957L8.843-3.474H8.029Z" transform="translate(91.82 126.462)" fill="#a5a5a6"/>
        <path id="Path_14704" data-name="Path 14704" d="M0,0H105.019V20.544H0Z" transform="translate(88.061 85.111)" fill="#e4e7ea"/>
        <path id="Path_14705" data-name="Path 14705" d="M0,0H20.708V20.544H0Z" transform="translate(88.061 85.111)" fill="#1e1f21"/>
        <path id="Path_14706" data-name="Path 14706" d="M2.766,2.205c1.491,0,2.423-.775,2.423-1.858V.274c0-1.021-.745-1.541-2.254-1.8C1.683-1.73,1.417-2,1.417-2.487v-.044c0-.546.461-.9,1.242-.9a1.23,1.23,0,0,1,.925.249,1.21,1.21,0,0,1,.46.834H5.085A2.141,2.141,0,0,0,2.68-4.275C1.3-4.275.408-3.526.408-2.5v.062c0,.933.55,1.506,2.1,1.779,1.278.229,1.66.5,1.66,1.039V.418c0,.625-.568.933-1.358.933-.87,0-1.509-.367-1.6-1.241H.183C.254,1.448,1.257,2.205,2.766,2.205Zm9.3-.114L9.644-4.16H8.517L6.094,2.091H7.141L7.709.568h2.707l.559,1.523Zm-3-5.159L10.1-.286H8.026ZM17.09,2.091V1.237H14.454v-5.4H13.419V2.091Zm5.884,0V1.237H19.61V-.671h3.032v-.857H19.61V-3.306h3.31V-4.16h-4.34V2.091Zm3.772.114c1.488,0,2.423-.775,2.423-1.858V.274c0-1.021-.745-1.541-2.254-1.8C25.663-1.733,25.4-2.006,25.4-2.49v-.041c0-.546.461-.9,1.242-.9a1.23,1.23,0,0,1,.925.249,1.21,1.21,0,0,1,.46.834h1.035a2.141,2.141,0,0,0-2.405-1.928c-1.376,0-2.272.748-2.272,1.77v.062c0,.933.55,1.506,2.1,1.779,1.278.229,1.66.5,1.66,1.039V.418c0,.625-.568.933-1.358.933-.87,0-1.509-.367-1.6-1.241H24.166C24.234,1.448,25.237,2.205,26.746,2.205Zm9.239-.114L38.2-4.16H37.138l-1.7,5.1L33.73-4.16h-1.1l2.228,6.251Zm5.991.114a2.926,2.926,0,0,0,2.209-.9,2.877,2.877,0,0,0,.79-2.236v-.208a2.872,2.872,0,0,0-.787-2.239,2.921,2.921,0,0,0-2.213-.9,2.919,2.919,0,0,0-2.207.9,2.87,2.87,0,0,0-.784,2.236v.211a2.875,2.875,0,0,0,.788,2.231,2.923,2.923,0,0,0,2.2.9Zm0-.88c-1.207,0-1.923-.889-1.923-2.254v-.208c0-1.365.71-2.254,1.923-2.254S43.9-2.5,43.9-1.137v.211c0,1.362-.7,2.251-1.923,2.251Zm8.245.766V1.237H47.584v-5.4H46.548V2.091Zm3.772.114a2.3,2.3,0,0,0,1.884-.645A2.264,2.264,0,0,0,56.538-.3V-4.16H55.509V-.33c0,1.083-.518,1.638-1.518,1.638S52.483.753,52.483-.321V-4.16H51.447V-.3a2.254,2.254,0,0,0,.662,1.861,2.293,2.293,0,0,0,1.882.639Zm5.3-.114V-2.98l1.822,5.071h.87L63.8-2.972V2.091h.994V-4.16H63.328L61.571.823,59.8-4.16H58.287V2.091Zm11.664,0V1.237H67.6V-.671h3.032v-.857H67.6V-3.306h3.31V-4.16h-4.34V2.091Z" transform="translate(115.413 95.493)" fill="#1e1f21"/>
        <path id="Path_14496" data-name="Path 14496" d="M8.408,2.957H10.62v2.2" transform="translate(92.232 89.785)" fill="none" stroke="#fff" stroke-linecap="round" stroke-linejoin="round" stroke-width="0.739"/>
        <path id="Path_14497" data-name="Path 14497" d="M2.957,6.478l2.212-2.2,1.77,1.761,3.1-3.082" transform="translate(92.79 89.785)" fill="none" stroke="#fff" stroke-linecap="round" stroke-linejoin="round" stroke-miterlimit="10" stroke-width="0.739"/>
        <path id="Path_14498" data-name="Path 14498" d="M.986.986v8.8H9.833" transform="translate(92.992 89.995)" fill="none" stroke="#fff" stroke-linecap="round" stroke-linejoin="round" stroke-miterlimit="10" stroke-width="0.739"/>
        <path id="Path_14707" data-name="Path 14707" d="M1.479,0A1.467,1.467,0,1,1,0,1.467,1.473,1.473,0,0,1,1.479,0Z" transform="translate(441.222 94.649)" fill="#f07d22"/>
        <path id="Path_14708" data-name="Path 14708" d="M2.906-1.027v1.6A2.69,2.69,0,0,0,.417,3.212c0,1.614,1.331,2.206,2.5,2.681S4.783,6.7,4.783,7.4c0,.753-.719,1.2-1.677,1.2A4.277,4.277,0,0,1,.417,7.546V9.395a4.941,4.941,0,0,0,2.407.778v1.614H4.088v-1.68a2.781,2.781,0,0,0,2.559-2.76c0-1.717-1.4-2.3-2.769-2.839-1.092-.449-1.651-.753-1.651-1.374,0-.674.652-1.027,1.531-1.027a4.23,4.23,0,0,1,2.356.75V1.126A4.733,4.733,0,0,0,4.171.531V-1.027ZM14.089.5a3.178,3.178,0,0,0-2.363.853,3.126,3.126,0,0,0-.989,2.293,2.82,2.82,0,0,0,.848,2.106,2.867,2.867,0,0,0,2.134.813,1.544,1.544,0,0,0,.839-.33l-2.665,3.8h2.063l2.4-3.539a5,5,0,0,0,1.025-2.853,3.069,3.069,0,0,0-.949-2.288A3.12,3.12,0,0,0,14.089.5Zm-.024,1.6a1.545,1.545,0,0,1,1.118.434,1.52,1.52,0,0,1,.463,1.1,1.593,1.593,0,0,1-3.18,0,1.507,1.507,0,0,1,.465-1.109A1.532,1.532,0,0,1,14.065,2.1Zm3.581,9.681h.814L19.4,9.671a1.16,1.16,0,0,0,.106-.449,1,1,0,1,0-1.291.924ZM26.429.664H21.6l-.426,4.9.253.2a3.7,3.7,0,0,1,1.691-.4c1.384,0,2.117.713,2.117,1.638s-.719,1.614-1.944,1.614a3.613,3.613,0,0,1-2.529-1.087V9.365a4.376,4.376,0,0,0,2.689.845,3.26,3.26,0,0,0,3.568-3.222,3.033,3.033,0,0,0-1-2.195A3.083,3.083,0,0,0,23.727,4a3.531,3.531,0,0,0-1.012.147l.2-1.968h3.514ZM31.474,10.2a3.189,3.189,0,0,0,2.364-.859,3.137,3.137,0,0,0,.99-2.3,2.9,2.9,0,0,0-.843-2.094,2.946,2.946,0,0,0-2.1-.868,1.633,1.633,0,0,0-.814.357L33.684.664h-2.1L29.214,4.177a5.1,5.1,0,0,0-1.035,2.879,3.083,3.083,0,0,0,.957,2.284,3.134,3.134,0,0,0,2.338.859ZM31.5,8.6a1.527,1.527,0,1,1,1.6-1.519,1.512,1.512,0,0,1-.473,1.1A1.537,1.537,0,0,1,31.5,8.6Zm4.366,1.437h1.9l3.967-8.109V.677H35.495V2.222h4.233Zm5.418-.819a1,1,0,1,0,1-.991.994.994,0,0,0-1,.991Zm5.445.924c1.739,0,2.387-1.532,2.387-3.228S48.47,3.689,46.73,3.689s-2.4,1.532-2.4,3.228S44.991,10.146,46.73,10.146ZM45.523,6.918c0-1.321.382-2.148,1.207-2.148s1.2.828,1.2,2.148-.37,2.148-1.2,2.148-1.207-.822-1.207-2.151Zm6.9,3.228c1.739,0,2.387-1.532,2.387-3.228s-.648-3.228-2.387-3.228-2.4,1.532-2.4,3.228.657,3.228,2.4,3.228ZM51.212,6.918c0-1.321.382-2.148,1.207-2.148s1.2.825,1.2,2.145-.37,2.148-1.2,2.148-1.207-.819-1.207-2.148Z" transform="translate(470.956 151.081)" fill="#787879"/>
        <path id="Path_14709" data-name="Path 14709" d="M7.5,5.774H6.248V.161H4.57L.177,6.2V7.264H4.541V9.522h1.72V7.264H7.5Zm-5.365.013,2.41-3.381V5.788ZM12.04,4.374,8.526,8.4V9.538h6.017V7.993H10.931l2.4-2.641a3.79,3.79,0,0,0,1.132-2.483C14.461,1.112,13.01,0,11.187,0A4.146,4.146,0,0,0,8.631.848V2.737A3.265,3.265,0,0,1,11,1.667c.961,0,1.637.541,1.637,1.334A2.074,2.074,0,0,1,12.04,4.374Z" transform="translate(470.863 195.519)" fill="#1e1f21"/>
        <path id="Path_14710" data-name="Path 14710" d="M.683,2.632a2.976,2.976,0,0,1,2.276-1c1.1,0,1.637.514,1.637,1.174,0,.726-.572,1.268-1.9,1.268H1.828V5.484H2.945c1.278,0,1.89.528,1.89,1.307s-.624,1.28-1.716,1.28A3.67,3.67,0,0,1,.47,6.871V8.826A4.257,4.257,0,0,0,3.212,9.7C5.436,9.7,6.607,8.4,6.607,6.977A2.356,2.356,0,0,0,5.076,4.665a2.256,2.256,0,0,0,1.291-2.1C6.367,1.205,5.223,0,3.241,0A4.069,4.069,0,0,0,.683.822Z" transform="translate(471.014 238.723)" fill="#1e1f21"/>
        <path id="Path_14711" data-name="Path 14711" d="M2.032,5.984H2.8V.472H4.712v-.7H.106v.7H2.029ZM6.887,1.441a2.293,2.293,0,0,0-1.652.676,2.256,2.256,0,0,0-.656,1.649,2.308,2.308,0,0,0,4.615,0,2.256,2.256,0,0,0-.656-1.649,2.293,2.293,0,0,0-1.652-.676Zm0,.7A1.565,1.565,0,0,1,8,2.632a1.54,1.54,0,0,1,.421,1.133,1.523,1.523,0,0,1-.739,1.4,1.549,1.549,0,0,1-1.593,0,1.523,1.523,0,0,1-.739-1.4,1.54,1.54,0,0,1,.421-1.133,1.565,1.565,0,0,1,1.114-.487Zm5.662,3.117a1.131,1.131,0,0,1-.532.132.686.686,0,0,1-.577-.2.674.674,0,0,1-.186-.577V2.169h1.154V1.546H11.253V.243l-.74.229V1.546h-.7v.622H10.5V4.707a1.249,1.249,0,0,0,.352,1.007,1.27,1.27,0,0,0,1.006.375,1.475,1.475,0,0,0,.692-.141ZM13.57,1.881v.757a2.592,2.592,0,0,1,1.473-.528c.674,0,1.109.352,1.109.977v.176L14.9,3.439c-1.065.147-1.66.6-1.66,1.374a1.321,1.321,0,0,0,.447.946,1.342,1.342,0,0,0,1,.33,1.688,1.688,0,0,0,1.518-.872v.766H16.9V3.1a1.608,1.608,0,0,0-.518-1.239A1.635,1.635,0,0,0,15.1,1.435a2.79,2.79,0,0,0-1.526.446ZM14.8,5.456a.736.736,0,0,1-.564-.164.724.724,0,0,1-.261-.523c0-.423.37-.687,1.047-.775l1.145-.147v.282A1.374,1.374,0,0,1,14.8,5.456Zm3.532-.493a1,1,0,0,0,.275.828,1.013,1.013,0,0,0,.825.3,1.068,1.068,0,0,0,.37-.062V5.35a.725.725,0,0,1-.284.053c-.337,0-.435-.229-.435-.563V-.223h-.754Zm4.89,1.021h.763v-2.5H25.2l1.748,2.5h.905L26.03,3.369a1.8,1.8,0,0,0,1.455-1.752A1.842,1.842,0,0,0,26.869.242a1.873,1.873,0,0,0-1.443-.465h-2.2Zm.763-3.178V.472h1.438a1.143,1.143,0,0,1,.892.294,1.124,1.124,0,0,1,.365.86,1.139,1.139,0,0,1-.367.88,1.159,1.159,0,0,1-.911.3Zm6.6-1.365a2.215,2.215,0,0,0-1.618.684,2.179,2.179,0,0,0-.6,1.64,2.207,2.207,0,0,0,.643,1.668,2.244,2.244,0,0,0,1.674.657,2.748,2.748,0,0,0,1.633-.44V4.866a2.379,2.379,0,0,1-1.526.528,1.519,1.519,0,0,1-1.133-.377,1.494,1.494,0,0,1-.5-1.076h3.408a2.265,2.265,0,0,0,.044-.449,1.93,1.93,0,0,0-.553-1.469A1.962,1.962,0,0,0,30.591,1.441Zm-.018.669a1.253,1.253,0,0,1,.905.337,1.233,1.233,0,0,1,.39.878h-2.68A1.365,1.365,0,0,1,30.574,2.11Zm5.02,3.874,1.837-4.446h-.8L35.254,4.986,33.887,1.538h-.808L34.9,5.984Zm4.5-4.543a2.215,2.215,0,0,0-1.618.684,2.179,2.179,0,0,0-.6,1.64,2.207,2.207,0,0,0,.644,1.669,2.244,2.244,0,0,0,1.676.655,2.748,2.748,0,0,0,1.633-.44V4.866a2.379,2.379,0,0,1-1.526.528,1.519,1.519,0,0,1-1.131-.378,1.494,1.494,0,0,1-.5-1.075h3.408a2.264,2.264,0,0,0,.044-.449,1.93,1.93,0,0,0-.554-1.47A1.962,1.962,0,0,0,40.1,1.441Zm-.018.669a1.253,1.253,0,0,1,.905.337,1.233,1.233,0,0,1,.39.878H38.694A1.365,1.365,0,0,1,40.079,2.11Zm3.958.176V1.538h-.74V5.984h.754V3.695a1.421,1.421,0,0,1,.331-1.072,1.444,1.444,0,0,1,1.009-.5,1.088,1.088,0,0,1,.827.344,1.07,1.07,0,0,1,.282.844V5.984h.754V3.269a1.659,1.659,0,0,0-.437-1.3,1.687,1.687,0,0,0-1.269-.536,1.567,1.567,0,0,0-1.509.851Zm7.848,2.95v.748h.74V1.538h-.757V3.827A1.415,1.415,0,0,1,51.535,4.9a1.438,1.438,0,0,1-1.011.5,1.094,1.094,0,0,1-.831-.343,1.075,1.075,0,0,1-.287-.846V1.538h-.745V4.252A1.655,1.655,0,0,0,49.1,5.558a1.683,1.683,0,0,0,1.278.534,1.567,1.567,0,0,0,1.509-.857Zm4.142-3.795a2.215,2.215,0,0,0-1.618.684,2.179,2.179,0,0,0-.6,1.64,2.207,2.207,0,0,0,.644,1.669,2.244,2.244,0,0,0,1.676.655,2.748,2.748,0,0,0,1.633-.44V4.866a2.378,2.378,0,0,1-1.529.531A1.518,1.518,0,0,1,55.1,5.016a1.494,1.494,0,0,1-.5-1.074H58a2.264,2.264,0,0,0,.044-.449,1.93,1.93,0,0,0-.553-1.469,1.962,1.962,0,0,0-1.467-.582Zm-.018.669a1.253,1.253,0,0,1,.905.337,1.233,1.233,0,0,1,.39.878H54.625A1.365,1.365,0,0,1,56.006,2.11Z" transform="translate(470.798 138.289)" fill="#4b4b4d"/>
        <path id="Path_14712" data-name="Path 14712" d="M2.032,6.014H2.8V.5H4.712v-.7H.106V.5H2.029ZM6.887,1.471a2.293,2.293,0,0,0-1.652.676A2.256,2.256,0,0,0,4.579,3.8a2.308,2.308,0,0,0,4.615,0,2.256,2.256,0,0,0-.656-1.649,2.293,2.293,0,0,0-1.652-.676Zm0,.7A1.565,1.565,0,0,1,8,2.663,1.54,1.54,0,0,1,8.422,3.8a1.523,1.523,0,0,1-.739,1.4,1.549,1.549,0,0,1-1.593,0,1.523,1.523,0,0,1-.739-1.4,1.54,1.54,0,0,1,.421-1.133,1.565,1.565,0,0,1,1.114-.487Zm5.662,3.117a1.131,1.131,0,0,1-.532.132.686.686,0,0,1-.577-.2.674.674,0,0,1-.186-.577V2.2h1.154V1.577H11.253V.274L10.514.5V1.577h-.7V2.2H10.5V4.738a1.249,1.249,0,0,0,.352,1.007,1.27,1.27,0,0,0,1.006.375,1.475,1.475,0,0,0,.692-.141ZM13.57,1.911v.757a2.592,2.592,0,0,1,1.473-.528c.674,0,1.109.352,1.109.977v.176L14.9,3.47c-1.065.147-1.66.6-1.66,1.374a1.321,1.321,0,0,0,.447.946,1.342,1.342,0,0,0,1,.33,1.688,1.688,0,0,0,1.518-.872v.766H16.9V3.126a1.608,1.608,0,0,0-.518-1.239A1.635,1.635,0,0,0,15.1,1.465a2.79,2.79,0,0,0-1.526.446ZM14.8,5.486a.736.736,0,0,1-.564-.164.724.724,0,0,1-.261-.523c0-.423.37-.687,1.047-.775l1.145-.147v.282A1.374,1.374,0,0,1,14.8,5.486Zm3.532-.493a1,1,0,0,0,.275.828,1.013,1.013,0,0,0,.825.3,1.068,1.068,0,0,0,.37-.062V5.38a.725.725,0,0,1-.284.053c-.337,0-.435-.229-.435-.563V-.193h-.754ZM24.944-.3c-1.169,0-2.012.66-2.012,1.679,0,.995.79,1.374,1.627,1.735.9.387,1.405.652,1.405,1.233,0,.643-.592,1.048-1.322,1.048a2.8,2.8,0,0,1-1.748-.7v.872a3.116,3.116,0,0,0,1.775.537c1.234,0,2.13-.7,2.13-1.787,0-1.048-.834-1.426-1.757-1.823-.834-.352-1.3-.616-1.3-1.162-.006-.581.532-.916,1.219-.916a2.687,2.687,0,0,1,1.5.484v-.8a3,3,0,0,0-1.521-.4Zm3.017,2.21v.754a2.592,2.592,0,0,1,1.473-.528c.674,0,1.109.352,1.109.977v.176l-1.251.176c-1.065.147-1.66.6-1.66,1.374a1.321,1.321,0,0,0,.449.949,1.343,1.343,0,0,0,1,.328A1.688,1.688,0,0,0,30.6,5.248v.766H31.3V3.126a1.608,1.608,0,0,0-.519-1.24,1.635,1.635,0,0,0-1.285-.421,2.79,2.79,0,0,0-1.526.446ZM29.2,5.486a.736.736,0,0,1-.564-.164.724.724,0,0,1-.261-.523c0-.423.37-.687,1.047-.775l1.145-.147v.282A1.374,1.374,0,0,1,29.2,5.486Zm3.532-.493a1,1,0,0,0,.275.828,1.013,1.013,0,0,0,.825.3,1.068,1.068,0,0,0,.37-.062V5.38a.725.725,0,0,1-.284.053c-.337,0-.435-.229-.435-.563V-.193h-.754Zm4.331-3.522a2.215,2.215,0,0,0-1.618.684,2.179,2.179,0,0,0-.6,1.64,2.207,2.207,0,0,0,.643,1.668,2.244,2.244,0,0,0,1.674.657,2.748,2.748,0,0,0,1.633-.44V4.9a2.378,2.378,0,0,1-1.526.528,1.519,1.519,0,0,1-1.131-.378,1.494,1.494,0,0,1-.5-1.075H39.04a2.264,2.264,0,0,0,.044-.449,1.93,1.93,0,0,0-.554-1.47,1.962,1.962,0,0,0-1.469-.581Zm-.018.669a1.253,1.253,0,0,1,.905.337,1.233,1.233,0,0,1,.39.878h-2.68A1.365,1.365,0,0,1,37.043,2.14ZM41.6,1.465c-.967,0-1.606.563-1.606,1.312,0,.784.692,1.048,1.405,1.268.666.2,1.047.343,1.047.748,0,.379-.337.66-.961.66a2.111,2.111,0,0,1-1.518-.678v.836a2.561,2.561,0,0,0,1.571.514c.994,0,1.642-.519,1.642-1.338,0-.863-.74-1.109-1.464-1.321-.63-.194-.985-.361-.985-.722,0-.343.311-.6.9-.6a2.08,2.08,0,0,1,1.322.493V1.876A2.291,2.291,0,0,0,41.6,1.465Z" transform="translate(470.808 182.196)" fill="#4b4b4d"/>
        <path id="Path_14713" data-name="Path 14713" d="M2.032,6.014H2.8V.5H4.712v-.7H.106V.5H2.029ZM6.887,1.471a2.293,2.293,0,0,0-1.652.676A2.256,2.256,0,0,0,4.579,3.8a2.308,2.308,0,0,0,4.615,0,2.256,2.256,0,0,0-.656-1.649,2.293,2.293,0,0,0-1.652-.676Zm0,.7A1.565,1.565,0,0,1,8,2.663,1.54,1.54,0,0,1,8.422,3.8a1.523,1.523,0,0,1-.739,1.4,1.549,1.549,0,0,1-1.593,0,1.523,1.523,0,0,1-.739-1.4,1.54,1.54,0,0,1,.421-1.133,1.565,1.565,0,0,1,1.114-.487Zm5.662,3.117a1.131,1.131,0,0,1-.532.132.686.686,0,0,1-.577-.2.674.674,0,0,1-.186-.577V2.2h1.154V1.577H11.253V.274L10.514.5V1.577h-.7V2.2H10.5V4.738a1.249,1.249,0,0,0,.352,1.007,1.27,1.27,0,0,0,1.006.375,1.475,1.475,0,0,0,.692-.141ZM13.57,1.912v.757a2.592,2.592,0,0,1,1.473-.528c.674,0,1.109.352,1.109.977v.176L14.9,3.47c-1.065.147-1.66.6-1.66,1.374a1.321,1.321,0,0,0,.447.946,1.342,1.342,0,0,0,1,.33,1.688,1.688,0,0,0,1.518-.872v.766H16.9V3.127a1.608,1.608,0,0,0-.518-1.239A1.635,1.635,0,0,0,15.1,1.465a2.79,2.79,0,0,0-1.526.446ZM14.8,5.486a.736.736,0,0,1-.564-.164.724.724,0,0,1-.261-.523c0-.423.37-.687,1.047-.775l1.145-.147V4.16A1.374,1.374,0,0,1,14.8,5.486Zm3.532-.493a1,1,0,0,0,.275.828,1.013,1.013,0,0,0,.825.3,1.068,1.068,0,0,0,.37-.062V5.381a.725.725,0,0,1-.284.053c-.337,0-.435-.229-.435-.563V-.193h-.754Zm9.434-.211a2.8,2.8,0,0,1-1.686.587,2.412,2.412,0,0,1-1.789-.693,2.372,2.372,0,0,1-.7-1.772,2.371,2.371,0,0,1,.684-1.739A2.41,2.41,0,0,1,26.012.45a3.177,3.177,0,0,1,1.642.484V.127A3.428,3.428,0,0,0,25.941-.3a3.142,3.142,0,0,0-2.256.939A3.091,3.091,0,0,0,22.8,2.906a3.12,3.12,0,0,0,.909,2.281,3.172,3.172,0,0,0,2.286.933A3.006,3.006,0,0,0,27.769,5.6Zm4.313.484v.748h.74V1.568h-.754V3.857a1.415,1.415,0,0,1-.329,1.073,1.438,1.438,0,0,1-1.011.5,1.094,1.094,0,0,1-.835-.341,1.075,1.075,0,0,1-.289-.848V1.568h-.74V4.283A1.655,1.655,0,0,0,29.3,5.589a1.683,1.683,0,0,0,1.278.534A1.567,1.567,0,0,0,32.082,5.266Zm3.63-3.8c-.967,0-1.606.563-1.606,1.312,0,.784.692,1.048,1.405,1.268.666.2,1.047.343,1.047.748,0,.379-.337.66-.961.66a2.111,2.111,0,0,1-1.518-.678v.836a2.561,2.561,0,0,0,1.571.514c.994,0,1.642-.519,1.642-1.338,0-.863-.74-1.109-1.464-1.321-.63-.194-.985-.361-.985-.722,0-.343.311-.6.9-.6a2.08,2.08,0,0,1,1.322.5V1.876a2.291,2.291,0,0,0-1.349-.411ZM40.673,5.3a1.131,1.131,0,0,1-.532.132.686.686,0,0,1-.578-.2.674.674,0,0,1-.185-.579V2.2h1.154V1.577H39.378V.274L38.638.5V1.577h-.7V2.2h.689V4.738a1.249,1.249,0,0,0,.352,1.007,1.27,1.27,0,0,0,1.006.375,1.475,1.475,0,0,0,.692-.141ZM43.62,1.474a2.293,2.293,0,0,0-1.652.676A2.256,2.256,0,0,0,41.312,3.8a2.308,2.308,0,0,0,4.615,0,2.256,2.256,0,0,0-.655-1.651,2.293,2.293,0,0,0-1.653-.677Zm0,.7a1.565,1.565,0,0,1,1.114.487A1.54,1.54,0,0,1,45.155,3.8a1.523,1.523,0,0,1-.739,1.4,1.549,1.549,0,0,1-1.593,0,1.523,1.523,0,0,1-.739-1.4,1.54,1.54,0,0,1,.42-1.135,1.565,1.565,0,0,1,1.115-.488Zm3.488-.608V6.014h.754V3.725a1.421,1.421,0,0,1,.331-1.071,1.444,1.444,0,0,1,1.009-.5,1.088,1.088,0,0,1,.827.344,1.07,1.07,0,0,1,.282.844V6.014h.754V3.725A1.421,1.421,0,0,1,51.4,2.654a1.444,1.444,0,0,1,1.009-.5,1.088,1.088,0,0,1,.827.344,1.07,1.07,0,0,1,.282.844V6.014h.754V3.3A1.659,1.659,0,0,0,53.83,2a1.688,1.688,0,0,0-1.273-.534,1.783,1.783,0,0,0-1.654.983,1.628,1.628,0,0,0-1.553-.983,1.567,1.567,0,0,0-1.509.854V1.568Zm10.481-.1a2.215,2.215,0,0,0-1.618.684,2.179,2.179,0,0,0-.6,1.64,2.207,2.207,0,0,0,.643,1.668,2.244,2.244,0,0,0,1.674.657,2.748,2.748,0,0,0,1.633-.44V4.9a2.378,2.378,0,0,1-1.526.528,1.519,1.519,0,0,1-1.131-.378,1.494,1.494,0,0,1-.5-1.075h3.408a2.265,2.265,0,0,0,.044-.449,1.93,1.93,0,0,0-.554-1.47A1.962,1.962,0,0,0,57.589,1.471Zm-.018.669a1.253,1.253,0,0,1,.905.337,1.233,1.233,0,0,1,.39.878h-2.68A1.365,1.365,0,0,1,57.571,2.14Zm3.958-.572h-.74V6.014h.754V3.778a1.379,1.379,0,0,1,.334-1.095,1.4,1.4,0,0,1,1.05-.472,1,1,0,0,1,.177.018v-.74a1.655,1.655,0,0,0-.257-.026,1.372,1.372,0,0,0-1.322.933Zm3.846-.106c-.967,0-1.606.563-1.606,1.312,0,.784.692,1.048,1.405,1.268.666.2,1.047.343,1.047.748,0,.379-.337.66-.961.66a2.111,2.111,0,0,1-1.518-.678v.836a2.561,2.561,0,0,0,1.571.514c.994,0,1.642-.519,1.642-1.338,0-.863-.74-1.109-1.464-1.321-.63-.194-.985-.361-.985-.722,0-.343.311-.6.9-.6a2.08,2.08,0,0,1,1.322.5V1.876a2.291,2.291,0,0,0-1.352-.411Z" transform="translate(470.709 225.401)" fill="#4b4b4d"/>
        <path id="Path_14714" data-name="Path 14714" d="M2.371,7.306h.887V.876H5.5V.064H.124V.876H2.371Zm5.664-5.3a2.673,2.673,0,0,0-1.929.789A2.63,2.63,0,0,0,5.343,4.72a2.692,2.692,0,0,0,5.384,0,2.63,2.63,0,0,0-.763-1.926,2.673,2.673,0,0,0-1.929-.789Zm0,.822a1.825,1.825,0,0,1,1.3.568,1.8,1.8,0,0,1,.492,1.322,1.777,1.777,0,0,1-.861,1.637,1.807,1.807,0,0,1-1.861,0,1.777,1.777,0,0,1-.861-1.637A1.8,1.8,0,0,1,6.736,3.4a1.825,1.825,0,0,1,1.3-.567Zm7.952,3.626v.853h.849V.064h-.88V2.94A2.149,2.149,0,0,0,14.164,2a2.581,2.581,0,0,0-1.825.838,2.539,2.539,0,0,0-.66,1.885A2.537,2.537,0,0,0,12.341,6.6a2.578,2.578,0,0,0,1.823.834A2.149,2.149,0,0,0,15.986,6.453Zm-1.677.175a1.817,1.817,0,0,1-1.275-.59A1.788,1.788,0,0,1,12.57,4.72,1.789,1.789,0,0,1,13.026,3.4,1.819,1.819,0,0,1,14.3,2.8a1.785,1.785,0,0,1,1.27.6,1.756,1.756,0,0,1,.438,1.325,1.758,1.758,0,0,1-.44,1.312,1.787,1.787,0,0,1-1.258.6Zm4.307-4.109V3.4a3.023,3.023,0,0,1,1.719-.616c.787,0,1.294.411,1.294,1.14v.205l-1.46.205c-1.242.175-1.936.7-1.936,1.6a1.541,1.541,0,0,0,.522,1.1,1.566,1.566,0,0,0,1.166.385,1.969,1.969,0,0,0,1.771-1.017v.9H22.5V3.937a1.872,1.872,0,0,0-.6-1.449A1.9,1.9,0,0,0,20.4,2a3.255,3.255,0,0,0-1.781.524Zm1.438,4.17A.859.859,0,0,1,19.4,6.5a.845.845,0,0,1-.3-.609c0-.493.435-.8,1.222-.9l1.336-.173V5.14A1.6,1.6,0,0,1,20.054,6.69Zm3.593,2.65a1.713,1.713,0,0,0,.745.147c.887,0,1.284-.5,1.6-1.294l2.476-6.074h-.942L25.947,6.2l-1.6-4.078H23.36l2.163,5.114-.248.647c-.238.606-.5.853-.953.853a1.247,1.247,0,0,1-.673-.175Z" transform="translate(456.048 91.012)" fill="#646464"/>
        <path id="Path_14715" data-name="Path 14715" d="M2.5,7.343h.922l.818-2.085H7.395l.821,2.085h.932L6.287.1H5.345ZM4.527,4.426,5.821,1.077,7.106,4.426Zm5.547,1.726a1.161,1.161,0,0,0,.321.966,1.181,1.181,0,0,0,.963.349,1.246,1.246,0,0,0,.435-.073V6.6a.847.847,0,0,1-.331.062c-.393,0-.507-.267-.507-.66V.1h-.88Zm2.92,0a1.161,1.161,0,0,0,.322.967,1.181,1.181,0,0,0,.965.348,1.246,1.246,0,0,0,.435-.073V6.6a.847.847,0,0,1-.331.062c-.393,0-.507-.267-.507-.66V.1H13Zm8.169.349a1.319,1.319,0,0,1-.621.154.8.8,0,0,1-.671-.233.786.786,0,0,1-.217-.671V2.9H21V2.166H19.654V.646l-.862.267V2.166h-.814V2.9h.8V5.853a1.46,1.46,0,0,0,.411,1.175,1.486,1.486,0,0,0,1.173.439,1.721,1.721,0,0,0,.808-.164ZM22.853-.012a.581.581,0,0,0-.41.168.58.58,0,1,0,.82,0,.581.581,0,0,0-.41-.168Zm-.445,7.355h.88V2.156h-.88Zm2.7-5.187V7.343h.88V4.672a1.658,1.658,0,0,1,.387-1.25,1.685,1.685,0,0,1,1.177-.589,1.269,1.269,0,0,1,.965.4,1.248,1.248,0,0,1,.329.985V7.343h.88V4.672a1.658,1.658,0,0,1,.386-1.249,1.685,1.685,0,0,1,1.176-.589,1.269,1.269,0,0,1,.965.4,1.248,1.248,0,0,1,.329.985V7.343h.88V4.179a1.936,1.936,0,0,0-.509-1.521,1.969,1.969,0,0,0-1.487-.626,2.08,2.08,0,0,0-1.923,1.15,1.9,1.9,0,0,0-1.812-1.15,1.828,1.828,0,0,0-1.76,1V2.156Zm12.228-.113a2.584,2.584,0,0,0-1.889.8,2.542,2.542,0,0,0-.7,1.916A2.574,2.574,0,0,0,35.5,6.705a2.617,2.617,0,0,0,1.954.767,3.207,3.207,0,0,0,1.905-.514v-.92a2.771,2.771,0,0,1-1.781.616,1.772,1.772,0,0,1-1.32-.441,1.743,1.743,0,0,1-.585-1.254h3.976a2.642,2.642,0,0,0,.052-.524,2.251,2.251,0,0,0-.646-1.715,2.289,2.289,0,0,0-1.714-.678Zm-.021.781a1.463,1.463,0,0,1,1.056.394,1.439,1.439,0,0,1,.456,1.024H35.7a1.592,1.592,0,0,1,1.615-1.418Z" transform="translate(389.245 90.975)" fill="#f07d22"/>
        <path id="Path_14716" data-name="Path 14716" d="M2.371,7.343h.887V.913H5.5V.1H.124V.913H2.371ZM6.606.1V7.343h.88V4.59A1.587,1.587,0,0,1,7.88,3.372a1.613,1.613,0,0,1,1.169-.539,1.274,1.274,0,0,1,.963.4,1.253,1.253,0,0,1,.331.983V7.343h.88V4.179a1.946,1.946,0,0,0-.513-1.518,1.979,1.979,0,0,0-1.484-.629,1.908,1.908,0,0,0-1.741.945V.1Zm6.8-.113A.581.581,0,0,0,13,.156a.572.572,0,0,0-.17.407.581.581,0,0,0,1.161,0,.572.572,0,0,0-.17-.407.581.581,0,0,0-.411-.168Zm-.447,7.355h.879V2.156h-.88Zm4.255-5.311c-1.129,0-1.874.66-1.874,1.531,0,.914.808,1.222,1.636,1.479.777.236,1.222.4,1.222.873,0,.44-.393.77-1.118.77a2.463,2.463,0,0,1-1.771-.791V6.87a2.987,2.987,0,0,0,1.833.6c1.16,0,1.915-.606,1.915-1.561,0-1.007-.859-1.294-1.708-1.541-.735-.226-1.149-.421-1.149-.842,0-.4.362-.7,1.046-.7a2.423,2.423,0,0,1,1.543.587v-.9a2.673,2.673,0,0,0-1.574-.483Zm6.616,5.311h.87l1.367-3.962L27.45,7.343h.858l1.739-5.187h-.922L27.842,6.169,26.5,2.163h-.849L24.3,6.169,23.017,2.156h-.911Zm9.4-5.3a2.584,2.584,0,0,0-1.889.8,2.542,2.542,0,0,0-.7,1.916A2.574,2.574,0,0,0,31.4,6.705a2.617,2.617,0,0,0,1.954.767,3.207,3.207,0,0,0,1.905-.514v-.92a2.771,2.771,0,0,1-1.781.616,1.772,1.772,0,0,1-1.32-.441,1.743,1.743,0,0,1-.585-1.254h3.976a2.641,2.641,0,0,0,.052-.524,2.251,2.251,0,0,0-.646-1.715,2.289,2.289,0,0,0-1.714-.678Zm-.018.781a1.463,1.463,0,0,1,1.054.395,1.439,1.439,0,0,1,.455,1.023H31.6A1.592,1.592,0,0,1,33.218,2.823Zm5.909-.781a2.584,2.584,0,0,0-1.889.8,2.542,2.542,0,0,0-.7,1.916,2.574,2.574,0,0,0,.749,1.948,2.617,2.617,0,0,0,1.954.767,3.207,3.207,0,0,0,1.905-.514v-.92a2.771,2.771,0,0,1-1.781.616,1.772,1.772,0,0,1-1.32-.441,1.743,1.743,0,0,1-.585-1.254h3.976a2.642,2.642,0,0,0,.052-.524,2.251,2.251,0,0,0-.646-1.715,2.289,2.289,0,0,0-1.714-.678Zm-.021.781a1.463,1.463,0,0,1,1.056.394,1.439,1.439,0,0,1,.456,1.024H37.492A1.592,1.592,0,0,1,39.107,2.823Zm4.639,4.52V5.936l.922-1.068,1.626,2.476h1.015l-2.05-3.03,1.853-2.157H46.054L43.745,4.775V.1h-.88V7.343Z" transform="translate(497.342 90.975)" fill="#646464"/>
        <path id="Path_14717" data-name="Path 14717" d="M.607,1.677A2.259,2.259,0,0,1,2.4.824c.932,0,1.45.534,1.45,1.181,0,.719-.549,1.263-1.708,1.263H1.487v.781h.839c1.139,0,1.75.524,1.75,1.294,0,.75-.592,1.294-1.646,1.294A2.644,2.644,0,0,1,.4,5.659V6.751a3.064,3.064,0,0,0,2.1.719c1.6,0,2.464-.954,2.464-2.044A1.8,1.8,0,0,0,3.651,3.587,1.7,1.7,0,0,0,4.77,1.913,2.049,2.049,0,0,0,4.04.466,2.082,2.082,0,0,0,2.481-.008,2.824,2.824,0,0,0,.607.639Zm8.242,5.8c1.923,0,2.63-1.859,2.63-3.742s-.7-3.742-2.63-3.742-2.63,1.855-2.63,3.742S6.933,7.47,8.849,7.47ZM7.141,3.731c0-1.746.559-2.9,1.708-2.9s1.708,1.15,1.708,2.9-.559,2.9-1.708,2.9-1.708-1.15-1.708-2.9ZM19.491,6.494v.853h.849V.105h-.88V2.981a2.149,2.149,0,0,0-1.791-.945,2.581,2.581,0,0,0-1.825.838,2.539,2.539,0,0,0-.66,1.885,2.537,2.537,0,0,0,.662,1.881,2.578,2.578,0,0,0,1.823.834,2.149,2.149,0,0,0,1.824-.979Zm-1.677.175a1.817,1.817,0,0,1-1.275-.59,1.788,1.788,0,0,1-.465-1.318,1.79,1.79,0,0,1,.456-1.322,1.819,1.819,0,0,1,1.273-.6,1.785,1.785,0,0,1,1.27.6,1.756,1.756,0,0,1,.438,1.325,1.758,1.758,0,0,1-.44,1.312,1.786,1.786,0,0,1-1.257.6ZM22.121,2.56v.88a3.023,3.023,0,0,1,1.719-.616c.787,0,1.294.411,1.294,1.14V4.17l-1.46.205c-1.242.175-1.936.7-1.936,1.6a1.541,1.541,0,0,0,.522,1.1,1.566,1.566,0,0,0,1.166.385A1.969,1.969,0,0,0,25.2,6.45v.9H26V3.978a1.872,1.872,0,0,0-.6-1.449,1.9,1.9,0,0,0-1.5-.493,3.255,3.255,0,0,0-1.779.524Zm1.441,4.17a.859.859,0,0,1-.658-.192.845.845,0,0,1-.3-.609c0-.493.435-.8,1.222-.9l1.334-.173v.329a1.6,1.6,0,0,1-1.595,1.55Zm3.593,2.65a1.713,1.713,0,0,0,.745.147c.887,0,1.284-.5,1.6-1.294L31.98,2.159h-.942L29.456,6.237,27.849,2.159h-.981l2.161,5.114-.248.647c-.238.606-.5.853-.953.853a1.247,1.247,0,0,1-.673-.175Zm7.382-7.344c-1.129,0-1.874.66-1.874,1.531,0,.914.808,1.222,1.636,1.479.777.236,1.222.4,1.222.873,0,.44-.393.77-1.118.77A2.463,2.463,0,0,1,32.632,5.9v.976a2.987,2.987,0,0,0,1.833.6c1.16,0,1.915-.606,1.915-1.561,0-1.007-.859-1.294-1.708-1.541-.735-.226-1.149-.421-1.149-.842,0-.4.362-.7,1.046-.7a2.423,2.423,0,0,1,1.543.587v-.9a2.673,2.673,0,0,0-1.574-.483Z" transform="translate(555.906 90.971)" fill="#646464"/>
        <path id="Line_700" data-name="Line 700" d="M0,0,12.573.013" transform="translate(580.852 314.146)" fill="none" stroke="#f07d22" stroke-linecap="round" stroke-width="0.493"/>
        <path id="Path_866" data-name="Path 866" d="M1235.97,1424.427l3.106,2.2-3.106,2.2" transform="translate(-645.655 -1112.47)" fill="none" stroke="#f07d22" stroke-linecap="round" stroke-linejoin="round" stroke-width="0.493"/>
        <path id="All_Products" data-name="All Products" d="M.012,2.118H1.228L1.822.564h2.5L4.92,2.118H6.135L3.668-4.225H2.479ZM2.164-.473l.91-2.439.9,2.439Zm5.3,2.591H11.3V1.064H8.657v-5.28H7.468Zm5.286,0h3.827V1.064H13.943v-5.28H12.754Zm8.852-2.18h1.171A2.083,2.083,0,0,0,24.9-2.152a2.072,2.072,0,0,0-2.125-2.064h-2.35V2.118h1.18Zm0-1.018v-2.1h1a1.04,1.04,0,0,1,1.072,1.027A1.066,1.066,0,0,1,22.606-1.08Zm4.845,3.2h1.189V-.24H28.5L30.08,2.118h1.369L29.693-.455A1.866,1.866,0,0,0,31.07-2.242a1.991,1.991,0,0,0-2.206-1.974H26.451ZM27.639-1.25V-3.188h1.153a.939.939,0,0,1,1.045.965.946.946,0,0,1-1.045.974Zm8.186-3.082A3.237,3.237,0,0,0,32.5-1.053a3.229,3.229,0,0,0,3.314,3.279,3.237,3.237,0,0,0,3.323-3.279A3.235,3.235,0,0,0,35.825-4.332Zm0,1.126a2.079,2.079,0,0,1,2.089,2.153A2.084,2.084,0,0,1,35.825,1.1a2.086,2.086,0,0,1-2.1-2.153A2.081,2.081,0,0,1,35.825-3.206ZM40.85,2.118h2.287a3.126,3.126,0,0,0,3.251-3.171,3.13,3.13,0,0,0-3.251-3.163H40.85Zm1.18-1.036V-3.18h1.009a2.08,2.08,0,0,1,2.125,2.126,2.082,2.082,0,0,1-2.125,2.135ZM53.169-4.225H51.98v3.9A1.36,1.36,0,0,1,50.6,1.109,1.354,1.354,0,0,1,49.224-.321v-3.9H48.036V-.24A2.451,2.451,0,0,0,50.6,2.225,2.456,2.456,0,0,0,53.169-.24ZM59.841.528a2.7,2.7,0,0,1-1.621.563,2.081,2.081,0,0,1-2.2-2.144,2.09,2.09,0,0,1,2.161-2.153,2.83,2.83,0,0,1,1.558.482V-3.93a3.388,3.388,0,0,0-1.675-.4,3.218,3.218,0,0,0-3.269,3.3,3.2,3.2,0,0,0,3.278,3.261,3.055,3.055,0,0,0,1.765-.491Zm2.891,1.59h1.189v-5.28h1.837V-4.216H60.895v1.054h1.837Zm6.322-6.45c-1.333,0-2.215.741-2.215,1.831s.9,1.492,1.684,1.814c.8.331,1.27.545,1.27,1.018,0,.509-.486.813-1.135.813A2.918,2.918,0,0,1,66.829.43V1.68a3.389,3.389,0,0,0,1.9.536c1.4,0,2.323-.768,2.323-1.921S70.1-1.259,69.18-1.625c-.747-.3-1.117-.509-1.117-.929,0-.456.441-.7,1.036-.7a2.907,2.907,0,0,1,1.594.509v-1.17A3.266,3.266,0,0,0,69.053-4.332Z" transform="translate(504.546 314.975)" fill="#f07d22"/>
        <g id="Group_11300" data-name="Group 11300" transform="translate(556.446 11.739)">
          <rect id="Rectangle_1663" data-name="Rectangle 1663" width="20.708" height="20.544" rx="2.464" fill="#78c3d5"/>
          <path id="EN" d="M.957,0H6.05V-1.276H2.4V-3.3H5.291V-4.565H2.4V-6.523h3.52V-7.8H.957ZM12.606-7.81v5.28L8.723-7.81H7.48V0H8.932V-5.28L12.815,0h1.232V-7.81Z" transform="translate(3.196 14.261)" fill="#fff"/>
        </g>
        <path id="ic-profile-settings" d="M17.637,2.076a3.336,3.336,0,0,0,0-1.221l.745-.427a.207.207,0,0,0,.1-.244,4.292,4.292,0,0,0-.961-1.645.212.212,0,0,0-.26-.04l-.745.427a3.4,3.4,0,0,0-1.066-.61v-.854a.209.209,0,0,0-.165-.2,4.393,4.393,0,0,0-1.913,0,.209.209,0,0,0-.165.2v.854a3.4,3.4,0,0,0-1.066.61L11.392-1.5a.213.213,0,0,0-.26.04A4.293,4.293,0,0,0,10.17.184a.211.211,0,0,0,.1.244l.745.427a3.336,3.336,0,0,0,0,1.221l-.745.427a.207.207,0,0,0-.09.247,4.314,4.314,0,0,0,.961,1.645.212.212,0,0,0,.26.04l.745-.427a3.4,3.4,0,0,0,1.066.61v.851a.209.209,0,0,0,.165.2,4.393,4.393,0,0,0,1.913,0,.209.209,0,0,0,.165-.2V4.615A3.4,3.4,0,0,0,16.516,4l.745.427a.213.213,0,0,0,.26-.04,4.292,4.292,0,0,0,.956-1.642.211.211,0,0,0-.1-.244Zm-3.308.78a1.4,1.4,0,0,1-1.4-1.39,1.4,1.4,0,0,1,2.8,0A1.4,1.4,0,0,1,14.329,2.855ZM6.471-1.286a3.683,3.683,0,0,0,3.7-3.669,3.683,3.683,0,0,0-3.7-3.669,3.683,3.683,0,0,0-3.7,3.669,3.683,3.683,0,0,0,3.7,3.669Zm5.812,6.492c-.067-.034-.133-.073-.2-.112l-.229.132a1.141,1.141,0,0,1-1.4-.209A5.217,5.217,0,0,1,9.3,3.022a1.117,1.117,0,0,1,.518-1.31l.229-.132q0-.112,0-.22l-.229-.132A1.116,1.116,0,0,1,9.3-.082c.026-.083.064-.167.092-.249-.109-.009-.217-.034-.329-.034h-.48A5.068,5.068,0,0,1,6.473.093,5.078,5.078,0,0,1,4.363-.369H3.883A3.868,3.868,0,0,0,0,3.482V4.675A1.381,1.381,0,0,0,1.387,6.051H11.556a1.393,1.393,0,0,0,.786-.244,1.108,1.108,0,0,1-.058-.338Z" transform="translate(526.123 23.298)" fill="#72757e"/>
        <g id="ic-switch-app" transform="translate(588.808 15.677)">
          <path id="Path_8710" data-name="Path 8710" d="M2.733,1.786H.911A.908.908,0,0,0,0,2.69V4.5a.908.908,0,0,0,.911.9H2.733a.908.908,0,0,0,.91-.9V2.69a.908.908,0,0,0-.91-.9Zm4.554,0H5.465a.908.908,0,0,0-.911.9V4.5a.908.908,0,0,0,.911.9H7.287a.908.908,0,0,0,.91-.9V2.69A.908.908,0,0,0,7.287,1.786Zm4.554,0H10.019a.908.908,0,0,0-.911.9V4.5a.908.908,0,0,0,.911.9h1.822a.908.908,0,0,0,.911-.9V2.69a.908.908,0,0,0-.91-.9Z" transform="translate(0 -1.786)" fill="#72757e"/>
          <path id="Path_8711" data-name="Path 8711" d="M2.733,7.693H.911A.908.908,0,0,0,0,8.6V10.4a.908.908,0,0,0,.911.9H2.733a.908.908,0,0,0,.911-.9V8.6A.908.908,0,0,0,2.733,7.693Zm4.554,0H5.465a.908.908,0,0,0-.911.9V10.4a.908.908,0,0,0,.911.9H7.287a.908.908,0,0,0,.911-.9V8.6A.908.908,0,0,0,7.287,7.693Zm4.554,0H10.019a.908.908,0,0,0-.911.9V10.4a.908.908,0,0,0,.911.9h1.822a.908.908,0,0,0,.911-.9V8.6a.908.908,0,0,0-.91-.9Z" transform="translate(0 -3.165)" fill="#72757e"/>
          <path id="Path_8712" data-name="Path 8712" d="M2.733,7.693H.911A.908.908,0,0,0,0,8.6V10.4a.908.908,0,0,0,.911.9H2.733a.908.908,0,0,0,.911-.9V8.6A.908.908,0,0,0,2.733,7.693Zm4.554,0H5.465a.908.908,0,0,0-.911.9V10.4a.908.908,0,0,0,.911.9H7.287a.908.908,0,0,0,.911-.9V8.6A.908.908,0,0,0,7.287,7.693Zm4.554,0H10.019a.908.908,0,0,0-.911.9V10.4a.908.908,0,0,0,.911.9h1.822a.908.908,0,0,0,.911-.9V8.6a.908.908,0,0,0-.91-.9Z" transform="translate(0 1.363)" fill="#72757e"/>
        </g>
        <path id="Rectangle_3944" data-name="Rectangle 3944" d="M0,0H105.758V20.544H0Z" transform="translate(88.061 303.885)" fill="#e4e7ea"/>
        <path id="Rectangle_3946" data-name="Rectangle 3946" d="M0,0H20.708V20.544H0Z" transform="translate(88.061 303.885)" fill="#1e1f21"/>
        <path id="Top_Products" data-name="Top Products" d="M3.062,2.121V-3.355H4.953v-.867H.126v.867H2.008V2.121Zm5.781.116a2.943,2.943,0,0,0,3.044-3.18v-.214a2.939,2.939,0,0,0-3.044-3.18,2.937,2.937,0,0,0-3.035,3.18v.214A2.941,2.941,0,0,0,8.843,2.237Zm0-.893c-1.225,0-1.954-.9-1.954-2.287v-.214c0-1.385.72-2.287,1.954-2.287s1.954.9,1.954,2.287v.214C10.8.442,10.086,1.344,8.843,1.344Zm5.673.777V-.291h1.567c1.288,0,2.188-.661,2.188-1.894v-.143c0-1.233-.9-1.894-2.188-1.894h-2.6V2.121Zm0-5.467H16c.72,0,1.2.322,1.2,1.018v.143c0,.7-.477,1.018-1.2,1.018H14.516ZM23.2,2.121V-.291h1.567c1.288,0,2.188-.661,2.188-1.894v-.143c0-1.233-.9-1.894-2.188-1.894h-2.6V2.121Zm0-5.467h1.486c.72,0,1.2.322,1.2,1.018v.143c0,.7-.477,1.018-1.2,1.018H23.2Zm6.285,5.467V-.291h1.234l1.549,2.412h1.2L31.824-.371a1.745,1.745,0,0,0,1.5-1.814v-.143c0-1.233-.9-1.894-2.188-1.894H28.447V2.121Zm0-5.467h1.576c.72,0,1.2.322,1.2,1.018v.143c0,.7-.477,1.018-1.2,1.018H29.482ZM37.6,2.237a2.943,2.943,0,0,0,3.044-3.18v-.214A2.939,2.939,0,0,0,37.6-4.338a2.937,2.937,0,0,0-3.035,3.18v.214A2.941,2.941,0,0,0,37.6,2.237Zm0-.893c-1.225,0-1.954-.9-1.954-2.287v-.214c0-1.385.72-2.287,1.954-2.287s1.954.9,1.954,2.287v.214C39.559.442,38.848,1.344,37.6,1.344Zm6.871.777A2.884,2.884,0,0,0,47.636-.943v-.214a2.88,2.88,0,0,0-3.161-3.064H42.242V2.121ZM43.287-3.346h1.1a1.948,1.948,0,0,1,2.17,2.189v.214A1.943,1.943,0,0,1,44.4,1.246H43.287ZM51.77,2.237A2.313,2.313,0,0,0,54.354-.309V-4.222H53.31V-.336c0,1.1-.522,1.662-1.54,1.662S50.239.763,50.239-.327v-3.9H49.185V-.3A2.307,2.307,0,0,0,51.77,2.237Zm7.123,0A2.579,2.579,0,0,0,61.6-.273H60.532a1.564,1.564,0,0,1-1.639,1.608c-1.189,0-1.909-.929-1.909-2.278v-.214c0-1.349.711-2.287,1.909-2.287a1.6,1.6,0,0,1,1.648,1.528H61.6a2.543,2.543,0,0,0-2.7-2.421,2.938,2.938,0,0,0-3,3.18v.214A2.922,2.922,0,0,0,58.893,2.237Zm6.439-.116V-3.355h1.891v-.867H62.4v.867h1.882V2.121Zm5.349.116c1.513,0,2.458-.786,2.458-1.885V.281c0-1.036-.756-1.563-2.287-1.822-1.27-.214-1.54-.491-1.54-.983v-.045c0-.554.468-.911,1.261-.911a1.238,1.238,0,0,1,1.4,1.1h1.054a2.172,2.172,0,0,0-2.44-1.956c-1.4,0-2.305.759-2.305,1.8v.063c0,.947.558,1.528,2.134,1.8,1.3.232,1.684.509,1.684,1.054V.424c0,.634-.576.947-1.378.947-.882,0-1.531-.375-1.621-1.26H68.06C68.132,1.469,69.149,2.237,70.68,2.237Z" transform="translate(115.384 314.24)" fill="#1e1f21"/>
        <path id="Path_14417" data-name="Path 14417" d="M5.377,6.5h0A3.514,3.514,0,0,1,2.957,3.164V.493H7.8V3.164A3.514,3.514,0,0,1,5.377,6.5Z" transform="translate(93.038 309.266)" fill="none" stroke="#fff" stroke-linecap="round" stroke-linejoin="round" stroke-miterlimit="10" stroke-width="0.493"/>
        <path id="Line_3724" data-name="Line 3724" d="M0,0V1.2" transform="translate(98.415 316.154)" fill="none" stroke="#fff" stroke-linecap="round" stroke-width="0.493"/>
        <path id="Path_14418" data-name="Path 14418" d="M2.509,1.478H.493s-.165,3.64,2.822,4.1" transform="translate(93.486 309.081)" fill="none" stroke="#fff" stroke-linecap="round" stroke-linejoin="round" stroke-miterlimit="10" stroke-width="0.493"/>
        <path id="Path_14419" data-name="Path 14419" d="M8.688,1.478h2.017s.164,3.64-2.821,4.1" transform="translate(92.146 309.081)" fill="none" stroke="#fff" stroke-linecap="round" stroke-linejoin="round" stroke-miterlimit="10" stroke-width="0.493"/>
        <path id="Path_14420" data-name="Path 14420" d="M7.17,11.056H3.942v-.4a.8.8,0,0,1,.807-.8H6.363a.8.8,0,0,1,.807.8Z" transform="translate(92.859 307.497)" fill="none" stroke="#fff" stroke-linecap="round" stroke-linejoin="round" stroke-miterlimit="10" stroke-width="0.493"/>
        <g id="Group_12661" data-name="Group 12661" transform="translate(82.529 -30.391)">
          <path id="Path_14718" data-name="Path 14718" d="M8.8,0h108.59c4.863,0,8.8,1.832,8.8,4.091V20.113c0,2.259-3.942,4.091-8.8,4.091H8.8C3.942,24.2,0,22.373,0,20.113V4.091C0,1.832,3.942,0,8.8,0Z" transform="translate(0 28.305)" fill="#f7f8f9"/>
          <path id="Path_366" data-name="Path 366" d="M1.739,0,.373,1.376a1.291,1.291,0,0,0,0,1.816h0a1.267,1.267,0,0,0,1.8,0L3.54,1.816" transform="translate(46.662 39.476)" fill="none" stroke="#1e1f21" stroke-linecap="round" stroke-linejoin="round" stroke-width="0.493"/>
          <path id="Path_367" data-name="Path 367" d="M1.8,3.525,3.123,2.193a1.291,1.291,0,0,0,0-1.817h0a1.267,1.267,0,0,0-1.8,0L0,1.712" transform="translate(49.328 36.83)" fill="none" stroke="#1e1f21" stroke-linecap="round" stroke-linejoin="round" stroke-width="0.493"/>
          <path id="Path_14723" data-name="Path 14723" d="M0,1.582,1.569,0" transform="translate(48.96 39.146)" fill="none" stroke="#1e1f21" stroke-linecap="round" stroke-width="0.493"/>
          <path id="Path_14725" data-name="Path 14725" d="M2.439,6.354h.784L5.576.1H4.769L2.832,5.275.886.1h-.8ZM6.824,0a.49.49,0,0,0-.349.145.493.493,0,1,0,.7,0A.49.49,0,0,0,6.824,0ZM6.445,6.354H7.19V1.873H6.445Zm4.129-4.579a2.181,2.181,0,0,0-1.606.689,2.217,2.217,0,0,0-.6,1.654A2.244,2.244,0,0,0,9.011,5.8a2.207,2.207,0,0,0,1.66.662,2.694,2.694,0,0,0,1.62-.444v-.79a2.336,2.336,0,0,1-1.514.532,1.492,1.492,0,0,1-1.122-.381,1.516,1.516,0,0,1-.5-1.083h3.381a2.318,2.318,0,0,0,.044-.453,1.963,1.963,0,0,0-.55-1.482,1.93,1.93,0,0,0-1.458-.586Zm-.018.674a1.232,1.232,0,0,1,.9.34,1.252,1.252,0,0,1,.387.885H9.183a1.362,1.362,0,0,1,1.374-1.225Zm4.05,3.9h.74l1.162-3.426,1.174,3.426h.734L19.9,1.873h-.789l-1.092,3.47L16.87,1.881h-.722L15,5.343l-1.092-3.47h-.778ZM0,7.094H20.039v.74H0Z" transform="translate(20.544 35.801)" fill="#1e1f21"/>
        </g>
      </g>
    </g>
  </g>
</svg>
